<svg id="Capa_1" enable-background="new 0 0 512.004 512.004" height="512" viewBox="0 0 512.004 512.004" width="512" xmlns="http://www.w3.org/2000/svg"><g><path d="m511.751 395.821c-1.062-4.004-5.167-6.389-9.172-5.327-6.81 1.806-11.674 4.799-15.966 7.441-6.269 3.857-11.22 6.904-22.197 6.904-10.906 0-15.857-3.047-22.126-6.904-6.954-4.279-14.836-9.13-29.987-9.13s-23.033 4.851-29.987 9.13c-6.269 3.857-11.22 6.904-22.125 6.904s-15.857-3.047-22.125-6.904c-6.954-4.279-14.836-9.13-29.987-9.13s-23.033 4.851-29.987 9.13c-6.262 3.854-11.209 6.898-22.089 6.904-10.88-.006-15.828-3.051-22.09-6.904-6.954-4.279-14.836-9.13-29.987-9.13s-23.033 4.851-29.987 9.13c-6.269 3.857-11.22 6.904-22.125 6.904-10.906 0-15.857-3.047-22.126-6.904-6.954-4.279-14.836-9.13-29.987-9.13s-23.033 4.851-29.987 9.13c-6.269 3.857-11.22 6.904-22.197 6.904-10.906 0-15.857-3.047-22.126-6.904-4.292-2.642-9.157-5.635-15.966-7.441-4.006-1.061-8.11 1.324-9.172 5.327-1.062 4.003 1.323 8.11 5.327 9.172 4.674 1.24 8.046 3.314 11.95 5.716 6.954 4.28 14.836 9.13 30.059 9.13 15.151 0 23.033-4.85 29.987-9.129 6.269-3.858 11.22-6.905 22.125-6.905s15.856 3.047 22.125 6.904c6.954 4.28 14.836 9.13 29.987 9.13 15.15 0 23.032-4.85 29.986-9.129 6.269-3.858 11.22-6.905 22.125-6.905 10.906 0 15.857 3.047 22.126 6.905 6.938 4.269 14.8 9.107 29.882 9.129h.069.069c15.082-.022 22.944-4.86 29.882-9.129 6.269-3.858 11.22-6.905 22.125-6.905 10.906 0 15.857 3.047 22.126 6.905 6.954 4.279 14.836 9.129 29.987 9.129s23.033-4.85 29.987-9.129c6.269-3.858 11.22-6.905 22.125-6.905s15.856 3.047 22.125 6.904c6.954 4.28 14.836 9.13 30.059 9.13 15.151 0 23.033-4.85 29.987-9.13 3.904-2.402 7.275-4.477 11.95-5.716 4.005-1.062 6.39-5.169 5.328-9.172z"/><path d="m464.416 444.926c-10.906 0-15.857-3.047-22.126-6.905-6.954-4.28-14.836-9.13-29.987-9.13s-23.033 4.851-29.987 9.13c-6.269 3.858-11.22 6.905-22.125 6.905s-15.856-3.047-22.125-6.905c-6.954-4.279-14.836-9.13-29.987-9.13s-23.033 4.851-29.987 9.13c-6.262 3.854-11.209 6.898-22.089 6.905-10.88-.007-15.828-3.051-22.09-6.905-6.954-4.279-14.836-9.13-29.987-9.13s-23.033 4.851-29.987 9.13c-6.269 3.858-11.22 6.905-22.125 6.905-10.906 0-15.857-3.047-22.126-6.905-6.954-4.28-14.836-9.13-29.987-9.13s-23.033 4.851-29.987 9.13c-6.269 3.858-11.22 6.905-22.125 6.905-4.142 0-7.5 3.358-7.5 7.5s3.358 7.5 7.5 7.5c15.151 0 23.033-4.851 29.987-9.13 6.269-3.857 11.22-6.905 22.125-6.905s15.856 3.047 22.125 6.905c6.954 4.279 14.836 9.13 29.987 9.13 15.15 0 23.032-4.851 29.986-9.13 6.269-3.857 11.22-6.905 22.125-6.905 10.906 0 15.857 3.047 22.126 6.905 6.938 4.27 14.799 9.107 29.88 9.13h.071s.047 0 .072 0c15.08-.023 22.941-4.86 29.879-9.13 6.269-3.857 11.22-6.905 22.125-6.905 10.906 0 15.857 3.047 22.126 6.905 6.954 4.279 14.836 9.13 29.987 9.13s23.033-4.851 29.987-9.13c6.269-3.857 11.22-6.905 22.125-6.905s15.856 3.047 22.125 6.905c6.954 4.279 14.836 9.13 29.987 9.13 4.142 0 7.5-3.358 7.5-7.5s-3.356-7.5-7.498-7.5z"/><path d="m160.348 276.045c0 52.764 42.927 95.69 95.69 95.69s95.69-42.927 95.69-95.69c0-19.838-6.018-38.869-17.402-55.036-2.385-3.387-7.063-4.198-10.451-1.814-3.387 2.385-4.199 7.063-1.814 10.45 9.595 13.626 14.667 29.67 14.667 46.4 0 44.493-36.198 80.69-80.69 80.69s-80.69-36.197-80.69-80.69c0-44.492 36.198-80.69 80.69-80.69 15.702 0 30.919 4.511 44.008 13.045 3.469 2.262 8.117 1.284 10.379-2.186s1.283-8.117-2.187-10.379c-15.532-10.127-33.583-15.48-52.201-15.48-52.763 0-95.689 42.926-95.689 95.69z"/><path d="m39.571 283.545h88.19c4.142 0 7.5-3.357 7.5-7.5 0-4.142-3.358-7.5-7.5-7.5h-88.19c-4.142 0-7.5 3.358-7.5 7.5s3.358 7.5 7.5 7.5z"/><path d="m376.815 276.045c0 4.143 3.358 7.5 7.5 7.5h88.19c4.142 0 7.5-3.357 7.5-7.5 0-4.142-3.358-7.5-7.5-7.5h-88.19c-4.142 0-7.5 3.358-7.5 7.5z"/><path d="m256.038 155.268c4.142 0 7.5-3.358 7.5-7.5v-88.19c0-4.142-3.358-7.5-7.5-7.5s-7.5 3.358-7.5 7.5v88.19c0 4.143 3.358 7.5 7.5 7.5z"/><path d="m316.426 171.449c1.181.683 2.471 1.006 3.743 1.006 2.592 0 5.113-1.345 6.502-3.751l28.061-48.602c2.071-3.587.842-8.174-2.745-10.245-3.588-2.072-8.174-.842-10.245 2.745l-28.061 48.602c-2.071 3.587-.842 8.174 2.745 10.245z"/><path d="m185.405 168.704c1.389 2.406 3.91 3.751 6.502 3.751 1.272 0 2.562-.324 3.743-1.006 3.587-2.071 4.816-6.658 2.745-10.245l-28.061-48.602c-2.071-3.587-6.658-4.816-10.245-2.745s-4.816 6.658-2.745 10.245z"/><path d="m363.379 346.679 33.221 19.18c1.181.682 2.471 1.006 3.743 1.006 2.592 0 5.113-1.345 6.502-3.751 2.071-3.587.842-8.174-2.745-10.245l-33.221-19.18c-3.588-2.071-8.174-.842-10.245 2.745-2.072 3.586-.843 8.173 2.745 10.245z"/><path d="m92.595 190.342 48.603 28.061c1.181.682 2.471 1.006 3.743 1.006 2.592 0 5.113-1.345 6.502-3.751 2.071-3.587.842-8.174-2.745-10.245l-48.603-28.061c-3.588-2.072-8.175-.843-10.245 2.745-2.072 3.587-.843 8.173 2.745 10.245z"/><path d="m367.136 219.408c1.272 0 2.562-.324 3.743-1.006l48.603-28.061c3.587-2.071 4.816-6.658 2.745-10.245-2.071-3.588-6.658-4.816-10.245-2.745l-48.603 28.061c-3.587 2.071-4.816 6.658-2.745 10.245 1.389 2.406 3.91 3.751 6.502 3.751z"/><path d="m141.197 333.688-33.221 19.18c-3.587 2.071-4.816 6.658-2.745 10.245 1.389 2.406 3.91 3.751 6.502 3.751 1.272 0 2.562-.324 3.743-1.006l33.221-19.18c3.587-2.071 4.816-6.658 2.745-10.245s-6.658-4.815-10.245-2.745z"/></g></svg>