<svg id="Capa_1" enable-background="new 0 0 512 512" height="512" viewBox="0 0 512 512" width="512" xmlns="http://www.w3.org/2000/svg"><g><g><path d="m494.629 50.088h-33.743v-19.996c0-16.592-13.499-30.092-30.092-30.092-16.592 0-30.091 13.5-30.091 30.092v19.996h-56.347v-19.996c0-16.592-13.499-30.092-30.091-30.092s-30.092 13.5-30.092 30.092v19.996h-56.346v-19.996c0-16.592-13.499-30.092-30.092-30.092s-30.092 13.5-30.092 30.092v19.996h-56.346v-19.996c0-16.592-13.499-30.092-30.091-30.092-16.608 0-30.12 13.5-30.12 30.092v19.996h-33.743c-9.559 0-17.336 7.777-17.336 17.336v94.309c0 6.871 4.027 12.802 9.836 15.606v269.305c0 19.484 15.852 35.336 35.335 35.336h46.527v6.276c0 13.092 10.651 23.743 23.742 23.743h281.105c13.092 0 23.742-10.651 23.742-23.743v-6.276h46.498c19.484 0 35.336-15.852 35.336-35.336v-269.299c5.825-2.801 9.864-8.736 9.864-15.612v-94.308c.001-9.56-7.789-17.337-17.363-17.337zm-78.926-19.996c0-8.322 6.77-15.092 15.091-15.092s15.092 6.771 15.092 15.092v48.189c0 8.322-6.771 15.092-15.092 15.092s-15.091-6.771-15.091-15.092zm-116.53 0c0-8.322 6.771-15.092 15.092-15.092s15.092 6.771 15.092 15.092v48.189c0 8.322-6.771 15.092-15.092 15.092s-15.092-6.771-15.092-15.092zm-116.529 0c0-8.322 6.77-15.092 15.092-15.092 8.321 0 15.091 6.771 15.091 15.092v48.189c0 8.322-6.77 15.092-15.091 15.092-8.322 0-15.092-6.771-15.092-15.092zm-116.558 0c0-8.322 6.783-15.092 15.12-15.092 8.322 0 15.092 6.771 15.092 15.092v48.189c0 8.322-6.77 15.092-15.092 15.092-8.337 0-15.12-6.771-15.12-15.092zm-48.743 34.996h33.743v13.193c0 16.593 13.512 30.092 30.12 30.092 16.593 0 30.092-13.5 30.092-30.092v-13.193h56.346v13.193c0 16.593 13.499 30.092 30.092 30.092 16.592 0 30.091-13.5 30.091-30.092v-13.193h56.346v13.193c0 16.593 13.499 30.092 30.092 30.092s30.092-13.5 30.092-30.092v-13.193h56.347v13.193c0 16.593 13.499 30.092 30.091 30.092 16.593 0 30.092-13.5 30.092-30.092v-13.193h33.743c1.304 0 2.364 1.048 2.364 2.336v60.248h-481.987v-60.247c0-1.267 1.07-2.337 2.336-2.337zm115.412 286.754h23.766c4.142 0 7.5-3.358 7.5-7.5s-3.358-7.5-7.5-7.5h-23.766v-18.125c0-5.336 4.329-9.678 9.649-9.678h227.191c5.32 0 9.649 4.342 9.649 9.678v18.125h-61.692c-10.856 0-19.688 8.845-19.688 19.718v44.107c0 4.93-4.023 8.941-8.969 8.941-4.93 0-8.94-4.011-8.94-8.941v-39.118c0-4.142-3.357-7.5-7.5-7.5s-7.5 3.358-7.5 7.5v39.118 18.028c0 8.301-7.46 8.721-8.955 8.721-1.496 0-8.955-.42-8.955-8.721v-62.135c0-10.873-8.845-19.718-19.717-19.718h-36.197c-4.142 0-7.5 3.358-7.5 7.5s3.358 7.5 7.5 7.5h36.197c2.557 0 4.717 2.161 4.717 4.718v31.448h-99.291v-36.166zm111.598-104.927c0-3.653 1.5-11.213 4.365-18.595 3.146-8.101 6.088-11.283 7.273-12.069 1.185.781 4.132 3.954 7.282 12.055 2.872 7.383 4.374 14.95 4.374 18.609 0 4.347-2.337 8.984-5.732 11.662h-11.83c-3.396-2.678-5.732-7.315-5.732-11.662zm-4.111 26.662h7.58 16.355 7.552v20.461h-31.487zm72.622 114.43v-31.447c0-2.602 2.104-4.718 4.688-4.718h61.692v36.166h-66.38zm-80.819 15v15.688c0 15.573 12.051 23.721 23.955 23.721 10.822 0 21.765-6.734 23.666-19.659 2.842 1.192 5.96 1.851 9.229 1.851 12.426 0 22.671-9.494 23.853-21.6h83.805c4.82 0 8.742 3.922 8.742 8.743v44.955c-14.464 12.313-36.266 11.65-49.926-2.012-9.793-9.793-22.811-15.187-36.654-15.187s-26.861 5.393-36.654 15.187c-14.369 14.37-37.751 14.37-52.122 0-9.793-9.793-22.815-15.187-36.667-15.187-13.853 0-26.875 5.393-36.668 15.187-13.653 13.653-35.441 14.317-49.898 2.012v-44.956c0-4.821 3.922-8.743 8.742-8.743zm164.508 93.993h-281.106c-4.82 0-8.742-3.922-8.742-8.743v-13.59c19.518 10.099 44.156 6.98 60.504-9.368 6.96-6.96 16.215-10.793 26.062-10.793 9.846 0 19.101 3.833 26.061 10.793 20.22 20.22 53.118 20.219 73.336 0 6.96-6.96 16.21-10.793 26.047-10.793s19.087 3.833 26.047 10.793c10.109 10.109 23.389 15.164 36.669 15.164 8.205 0 16.407-1.936 23.864-5.795v13.589c0 4.821-3.922 8.743-8.742 8.743zm70.24-30.019h-46.498v-6.98c0-.003 0-.007 0-.01v-48.241c0-13.092-10.65-23.743-23.742-23.743h-2.308v-69.291c0-13.607-11.058-24.678-24.649-24.678h-82.866v-22.576c0-5.059-2.938-9.434-7.191-11.542 1.988-4.049 3.109-8.527 3.109-13.006 0-6.639-2.546-17.337-6.19-26.017-5.511-13.125-12.398-19.779-20.471-19.779-8.062 0-14.941 6.656-20.448 19.782-3.642 8.682-6.186 19.379-6.186 26.014 0 4.477 1.12 8.954 3.107 13.001-4.268 2.105-7.217 6.483-7.217 11.547v22.576h-82.838c-13.592 0-24.649 11.071-24.649 24.678v69.291h-2.308c-13.091 0-23.742 10.651-23.742 23.743v48.244.005 6.982h-46.528c-11.213 0-20.335-9.123-20.335-20.336v-267.575h213.767c4.142 0 7.5-3.358 7.5-7.5s-3.358-7.5-7.5-7.5h-221.267c-1.266 0-2.336-1.07-2.336-2.336v-19.061h481.986v19.061c0 1.288-1.061 2.336-2.364 2.336h-222.656c-4.143 0-7.5 3.358-7.5 7.5s3.357 7.5 7.5 7.5h215.156v267.575c0 11.213-9.123 20.336-20.336 20.336z"/><path d="m407.068 262.064h-9.014c-4.143 0-7.5 3.358-7.5 7.5s3.357 7.5 7.5 7.5h9.014c4.143 0 7.5-3.358 7.5-7.5s-3.357-7.5-7.5-7.5z"/><path d="m456.391 262.064h-8.985c-4.143 0-7.5 3.358-7.5 7.5s3.357 7.5 7.5 7.5h8.985c4.143 0 7.5-3.358 7.5-7.5s-3.358-7.5-7.5-7.5z"/><path d="m427.223 282.218c-4.143 0-7.5 3.358-7.5 7.5v9.014c0 4.142 3.357 7.5 7.5 7.5s7.5-3.358 7.5-7.5v-9.014c0-4.142-3.358-7.5-7.5-7.5z"/><path d="m427.223 232.895c-4.143 0-7.5 3.358-7.5 7.5v9.014c0 4.142 3.357 7.5 7.5 7.5s7.5-3.358 7.5-7.5v-9.014c0-4.142-3.358-7.5-7.5-7.5z"/><path d="m68.394 233.292h-9.014c-4.142 0-7.5 3.358-7.5 7.5s3.358 7.5 7.5 7.5h9.014c4.142 0 7.5-3.358 7.5-7.5s-3.358-7.5-7.5-7.5z"/><path d="m117.715 233.292h-9.014c-4.142 0-7.5 3.358-7.5 7.5s3.358 7.5 7.5 7.5h9.014c4.142 0 7.5-3.358 7.5-7.5s-3.358-7.5-7.5-7.5z"/><path d="m88.547 253.446c-4.142 0-7.5 3.358-7.5 7.5v9.014c0 4.142 3.358 7.5 7.5 7.5s7.5-3.358 7.5-7.5v-9.014c0-4.142-3.358-7.5-7.5-7.5z"/><path d="m88.547 204.124c-4.142 0-7.5 3.358-7.5 7.5v8.986c0 4.142 3.358 7.5 7.5 7.5s7.5-3.358 7.5-7.5v-8.986c0-4.143-3.358-7.5-7.5-7.5z"/></g></g></svg>