<svg id="Layer_1" enable-background="new 0 0 488 488" height="512" viewBox="0 0 488 488" width="512" xmlns="http://www.w3.org/2000/svg"><g id="XMLID_662_"><path id="XMLID_1239_" d="m102.336 95.162c11.612 0 21.38-8.032 24.051-18.831h85.432c3.446 14.445 16.454 25.222 31.939 25.222 9.419 0 17.918-3.991 23.912-10.365.059.002.117.009.177.009h64.032c2.671 10.799 12.439 18.831 24.051 18.831 13.662 0 24.777-11.115 24.777-24.777s-11.115-24.777-24.777-24.777c-11.612 0-21.38 8.032-24.051 18.831h-57.043c1.137-3.326 1.763-6.887 1.763-10.593v-18.034c-7.977-8.842-12.265-7.225-23.428-4.032-13.738 3.931-28.523 3.922-42.255-.054v17.846h-84.53c-2.671-10.799-12.438-18.831-24.051-18.831-13.662 0-24.777 11.115-24.777 24.777.001 13.663 11.116 24.778 24.778 24.778zm159.644-35.444c2.554 0 4.625 2.662 4.625 5.947 0 3.284-2.071 5.947-4.625 5.947s-4.625-2.662-4.625-5.947 2.07-5.947 4.625-5.947zm-35.973 0c2.554 0 4.625 2.662 4.625 5.947 0 3.284-2.071 5.947-4.625 5.947s-4.625-2.662-4.625-5.947 2.071-5.947 4.625-5.947z"/><path id="XMLID_1244_" d="m435.218 248.781c-11.612 0-21.38 8.032-24.051 18.831h-117.954l-.084-74.499c-.007-5.422 6.779-8.249 10.619-4.406l46.922 46.922c8.769 8.767 22.263 9.991 32.35 3.679l-83.339-92.628c-4.951-5.501-12.033-8.657-19.433-8.657h-17.708c-3.435 0-6.221-2.785-6.221-6.221v-20.37c-8.225 2.293-17.104 2.274-25.313-.046v20.416c0 3.435-2.785 6.221-6.221 6.221h-16.982c-7.39 0-14.462 3.147-19.402 8.634l-24.131 26.801h-87.437c-2.671-10.799-12.438-18.831-24.051-18.831-13.662 0-24.777 11.115-24.777 24.777s11.115 24.777 24.777 24.777c11.613 0 21.38-8.032 24.051-18.831h76.73l-48.582 53.958c10.088 6.312 23.583 5.087 32.348-3.68l46.354-46.353c3.844-3.842 10.63-1.016 10.619 4.412l-.207 97.754c0 .074-.002.149-.005.223l-1.537 40.368h-66.167c-2.671-10.799-12.438-18.831-24.051-18.831-13.662 0-24.777 11.115-24.777 24.777s11.115 24.777 24.777 24.777c11.612 0 21.38-8.032 24.051-18.831h65.714l-4.788 125.766c-.101 2.64-1.858 4.929-4.384 5.708-6.119 1.886-10.825 6.705-12.764 12.601h37.178l.045-18.711c-.102-.599 22.233-162.626 22.233-162.626.966-6.973 7.003-12.232 14.042-12.232h.002c7.039.001 13.073 5.26 14.039 12.231 0 0 22.339 162.079 22.233 162.702l.046 18.637h37.178c-1.938-5.896-6.645-10.715-12.763-12.601-2.525-.779-4.283-3.068-4.384-5.708l-2.147-56.389h53.836c2.671 10.799 12.439 18.831 24.051 18.831 13.662 0 24.777-11.115 24.777-24.777s-11.115-24.777-24.777-24.777c-11.612 0-21.38 8.032-24.051 18.831h-54.289l-4.169-109.5c-.002-.077-.004-.153-.004-.229l-.014-12.174h117.941c2.671 10.799 12.439 18.831 24.051 18.831 13.662 0 24.777-11.115 24.777-24.777 0-13.665-11.115-24.78-24.777-24.78zm-166.443-14.009-.376.198c-7.651 4.036-16.028 6.053-24.402 6.053-8.533 0-17.062-2.094-24.822-6.277-2.89-1.559-3.971-5.166-2.412-8.057 1.558-2.891 5.165-3.972 8.057-2.412 11.88 6.405 26.096 6.468 38.032.173l.377-.199c2.906-1.532 6.502-.418 8.033 2.488 1.532 2.904.419 6.501-2.487 8.033zm0-34.689-.376.198c-7.651 4.036-16.028 6.053-24.402 6.053-8.533 0-17.062-2.094-24.822-6.278-2.89-1.559-3.971-5.165-2.412-8.056 1.558-2.891 5.165-3.972 8.057-2.412 11.88 6.405 26.096 6.468 38.032.173l.377-.199c2.906-1.532 6.502-.418 8.033 2.488 1.532 2.905.419 6.502-2.487 8.033z"/><path id="XMLID_1246_" d="m256.736 32.846c6.531-2.712 13.881-2.044 19.807 1.495v-3.359c0-13.375-8.607-24.996-21.418-28.917-15.233-4.663-31.599-1.317-43.78 8.95l-16.305 13.742 5.669 4.733c17.048 9.604 37.953 10.865 56.027 3.356z"/></g></svg>