<?xml version="1.0"?>
<svg xmlns="http://www.w3.org/2000/svg" viewBox="0 0 64 64" width="512" height="512"><g id="_24-Breakfast" data-name="24-Breakfast"><path d="M57,64H7a7.009,7.009,0,0,1-7-7,1,1,0,0,1,1-1H63a1,1,0,0,1,1,1A7.009,7.009,0,0,1,57,64ZM2.1,58A5.008,5.008,0,0,0,7,62H57a5.008,5.008,0,0,0,4.9-4Z"/><path d="M40,58H4a1,1,0,0,1-.8-.4l-3-4A1,1,0,0,1,1,52H42a1,1,0,0,1,.9,1.447l-2,4A1,1,0,0,1,40,58ZM4.5,56H39.382l1-2H3Z"/><path d="M53,58V56a3,3,0,0,0,3-3V24H34V36H32V23a1,1,0,0,1,1-1H57a1,1,0,0,1,1,1V53A5.006,5.006,0,0,1,53,58Z"/><path d="M59,51H57a1,1,0,0,1-1-1V28a1,1,0,0,1,1-1h2a5.006,5.006,0,0,1,5,5V46A5.006,5.006,0,0,1,59,51Zm-1-2h1a3,3,0,0,0,3-3V32a3,3,0,0,0-3-3H58Z"/><path d="M43,17H41a4.907,4.907,0,0,1,1.2-3.267,3.069,3.069,0,0,0,0-4.133A4.907,4.907,0,0,1,41,6.333a4.9,4.9,0,0,1,1.2-3.266A2.97,2.97,0,0,0,43,1h2a4.907,4.907,0,0,1-1.2,3.267A2.965,2.965,0,0,0,43,6.333,2.97,2.97,0,0,0,43.8,8.4a5.046,5.046,0,0,1,0,6.533A2.97,2.97,0,0,0,43,17Z"/><path d="M49,17H47a4.907,4.907,0,0,1,1.2-3.267,3.069,3.069,0,0,0,0-4.133A4.907,4.907,0,0,1,47,6.333a4.9,4.9,0,0,1,1.2-3.266A2.97,2.97,0,0,0,49,1h2a4.907,4.907,0,0,1-1.2,3.267A2.965,2.965,0,0,0,49,6.333,2.97,2.97,0,0,0,49.8,8.4a5.046,5.046,0,0,1,0,6.533A2.97,2.97,0,0,0,49,17Z"/><path d="M31.33,53.5l-1.73-1A3.006,3.006,0,0,0,30,51a7.009,7.009,0,0,0-7-7H11a7.009,7.009,0,0,0-7,7,3.006,3.006,0,0,0,.4,1.5l-1.732,1A5,5,0,0,1,2,51a9.01,9.01,0,0,1,9-9H23a9.01,9.01,0,0,1,9,9A4.99,4.99,0,0,1,31.33,53.5Z"/><path d="M15,50H13a8.079,8.079,0,0,1,6.836-7.986l.328,1.972L20,43l.168.986C19.957,44.022,15,44.941,15,50Z"/><path d="M10,50H8a8.079,8.079,0,0,1,6.836-7.986l.328,1.972L15,43l.168.986C14.957,44.022,10,44.941,10,50Z"/><path d="M20,50H18a8.649,8.649,0,0,1,5.634-7.931l.732,1.862A6.658,6.658,0,0,0,20,50Z"/><path d="M41,51H39V47a7,7,0,0,0-13.491-2.626l-1.854-.75A9,9,0,0,1,41,47Z"/><rect x="29" y="41" width="2" height="2"/><rect x="33" y="41" width="2" height="2"/><path d="M3.168,48.555A17.461,17.461,0,0,1,0,38.333C0,33.738,5.166,30,11.517,30h3.029C20.861,30,26,33.738,26,38.333a7.336,7.336,0,0,1-.042.772L23.97,38.9a5.537,5.537,0,0,0,.03-.562C24,34.841,19.759,32,14.546,32H11.517C6.27,32,2,34.841,2,38.333a15.373,15.373,0,0,0,2.832,9.112Z"/><path d="M12,31.093a3.728,3.728,0,0,0-.192-.893c-.006-.017-.011-.034-.016-.052A1.57,1.57,0,0,0,10.221,29H9V27h1.221a3.59,3.59,0,0,1,3.472,2.512c.012.033.023.067.032.1A5.817,5.817,0,0,1,14,30.907Z"/><path d="M14,32H13a1,1,0,0,1-1-1V29a.99.99,0,0,1,.018-.188C12.585,25.844,15.644,24,20,24h.161a11.045,11.045,0,0,1,2.15.211,17.677,17.677,0,0,1,3.1.877,1,1,0,0,1,.538,1.228C25.871,26.549,23.939,32,14,32Zm0-2c6.08,0,8.594-2.176,9.542-3.443-.477-.134-1.04-.269-1.622-.385A9.059,9.059,0,0,0,20.161,26H20c-3.287,0-5.574,1.186-6,3.1Z"/><path d="M13.707,31.707l-1.414-1.414C12.509,30.077,17.67,25,25,25v2C18.489,27,13.754,31.66,13.707,31.707Z"/><rect x="52" y="26" width="2" height="2"/><rect x="52" y="30" width="2" height="2"/><path d="M22,44H12a1,1,0,0,1-1-1,5.006,5.006,0,0,1,5-5h2a5.006,5.006,0,0,1,5,5A1,1,0,0,1,22,44Zm-8.829-2h7.658A3.006,3.006,0,0,0,18,40H16A3.006,3.006,0,0,0,13.171,42Z"/></g></svg>
