<svg id="Capa_1" enable-background="new 0 0 512 512" height="512" viewBox="0 0 512 512" width="512" xmlns="http://www.w3.org/2000/svg"><g><path d="m511.999 290.405c0-8.331-4.695-15.584-11.594-19.259 5.45-6.287 8.76-14.479 8.76-23.433v-46.783c0-13.06-10.625-23.686-23.686-23.686h-52.12c-13.777 0-24.984 11.208-24.984 25.047 0 11.708 8.096 21.556 18.983 24.251v21.171c0 11.096 5.071 21.03 13.016 27.607-9.216 6.455-15.362 16.987-15.828 29.111-.159 4.128 3.059 7.603 7.186 7.761 4.152.155 7.602-3.059 7.761-7.187.463-12.034 10.268-21.46 22.323-21.46h7.603c-.717 2.159-1.111 4.464-1.111 6.861v42.045h-54.839c-13.135-.098-24.737 11.406-24.371 25.082h-17.576v-18.108c8.468-3.06 14.536-11.177 14.536-20.687v-17.982c0-4.131-3.348-7.48-7.479-7.48h-29.072c-4.131 0-7.48 3.349-7.48 7.48v17.982c0 9.509 6.068 17.626 14.535 20.687v18.108h-28.096v-54.318c.084-20.219-17.85-36.278-38.297-34.632 4.231-5.882 6.733-13.087 6.733-20.87v-27.917c.051-3.155-.153-7.058-1.269-11.77 10.936-1.637 19.35-11.091 19.35-22.475 0-12.532-10.196-22.727-22.728-22.727-10.551 0-19.445 7.227-21.993 16.991-4.444-1.659-9.248-2.57-14.263-2.57-22.816-.107-41.737 19.439-40.904 42.551v27.917c0 7.783 2.502 14.988 6.733 20.87-19.998-1.748-38.401 14.181-38.297 34.632v54.318h-28.096v-18.108c8.467-3.06 14.535-11.177 14.535-20.687v-17.982c0-4.131-3.348-7.48-7.48-7.48h-29.072c-4.131 0-7.48 3.349-7.48 7.48v17.982c0 9.51 6.069 17.627 14.536 20.687v18.108h-17.576c.502-13.067-10.739-25.109-24.371-25.082h-11.05v-26.567c0-12.61-6.296-23.77-15.902-30.524 7.973-6.577 13.064-16.528 13.064-27.647v-46.783c0-13.06-10.625-23.686-23.685-23.686h-34.433c-13.061 0-23.686 10.625-23.686 23.686v46.783c0 8.952 3.308 17.141 8.755 23.427-6.888 3.673-11.589 10.929-11.589 19.265l-.001 114.167c0 12.167 4.927 23.202 12.888 31.223-7.581 3.351-12.888 10.947-12.888 19.79 0 11.896 9.678 21.573 21.574 21.573h14.685v26.663c0 4.131 3.348 7.48 7.48 7.48s7.48-3.349 7.48-7.48v-26.663h21.3v26.663c0 4.131 3.348 7.48 7.48 7.48s7.48-3.349 7.48-7.48v-83.391h37.724c4.131 0 7.48-3.349 7.48-7.479 0-4.131-3.348-7.48-7.48-7.48h-37.726l.004-32.98h337.038l.004 32.98h-264.254c-4.131 0-7.48 3.349-7.48 7.48s3.348 7.479 7.48 7.479h264.254v83.391c0 4.131 3.348 7.48 7.48 7.48s7.48-3.349 7.48-7.48v-26.663h21.3v26.663c0 4.131 3.348 7.48 7.48 7.48 4.131 0 7.479-3.349 7.479-7.48v-26.663h14.685c11.896 0 21.574-9.678 21.574-21.623 0-8.806-5.306-16.392-12.888-19.741 7.961-8.021 12.888-19.056 12.888-31.223zm-155.012 17.83h14.113v10.502c0 3.877-3.153 7.031-7.031 7.031h-.052c-3.877 0-7.031-3.154-7.031-7.031v-10.502zm-216.087 0h14.113v10.502c0 3.877-3.153 7.031-7.031 7.031h-.052c-3.877 0-7.031-3.154-7.031-7.031v-10.502zm326.751 125.727h-28.169v-36.05h57.559v6.66c0 16.205-13.185 29.39-29.39 29.39zm11.833-61.471c4.483.175 12.315-1.703 17.556-5.17v15.631h-57.558v-10.461zm-37.167-145.216h51.889v20.437c0 11.508-9.362 20.87-20.87 20.87h-10.15c-11.508 0-20.87-9.362-20.87-20.87v-20.437zm-18.983-25.047c0-5.528 4.497-10.025 10.025-10.025h52.12c4.812 0 8.727 3.915 8.727 8.727v11.386h-59.369c-5.011.64-11.317-3.545-11.503-10.088zm59.933 88.177c0-3.783 3.078-6.861 6.912-6.861 3.784 0 6.861 3.078 6.861 6.861v42.045h-13.773zm-191.011-112.623c4.284 0 7.769 3.485 7.769 7.768s-3.485 7.769-7.769 7.769-7.769-3.485-7.769-7.769 3.485-7.768 7.769-7.768zm-62.201 40.365c0-14.306 11.639-25.944 25.945-25.944 12.798 0 23.461 9.314 25.567 21.52l-51.511 10.168c-.001-1.896-.001-3.444-.001-5.744zm0 29.565v-8.574l51.889-10.243v18.817c0 11.508-9.362 20.87-20.87 20.87h-10.15c-11.507 0-20.869-9.362-20.869-20.87zm-157.533 84.738h-28.83v-42.045c0-2.397-.394-4.702-1.112-6.861h7.604c12.317 0 22.338 10.021 22.338 22.339zm-57.562 0v-42.045c0-3.783 3.078-6.861 6.912-6.861 3.784 0 6.861 3.078 6.861 6.861v42.045zm17.556 40.041h40.002v10.461h-57.558v-15.628c4.644 2.729 10.168 5.146 17.556 5.167zm-17.557 32.081v-6.66h57.559v36.05h-28.169c-16.205 0-29.39-13.185-29.39-29.39zm2.835-177.297h51.889v20.437c0 11.508-9.362 20.87-20.87 20.87h-10.15c-11.508 0-20.87-9.362-20.87-20.87v-20.437zm0-26.345c0-4.812 3.915-8.727 8.727-8.727h34.436c4.812 0 8.726 3.915 8.726 8.727v11.386h-51.889zm3.78 261.269c-3.647 0-6.615-2.967-6.615-6.664 0-3.647 2.967-6.614 6.615-6.614h22.776 28.169v13.279h-50.945zm14.648-104.668c-7.288.583-15.707-1.718-19.58-10.123h81.889c4.218-.057 9.742 4.188 9.412 10.123zm162.27-54.318c0-8.792 5.798-16.252 13.77-18.765v73.083h-13.77zm101.247 54.318v-46.319c0-4.131-3.348-7.48-7.479-7.48s-7.48 3.349-7.48 7.48v46.319h-57.56v-73.991h21.3v4.553c0 4.131 3.348 7.479 7.48 7.479s7.48-3.349 7.48-7.479v-4.553h28.78c10.658-.881 21.305 8.244 21.249 19.673v54.318zm104.318-.71c0-5.19 4.222-9.412 9.412-9.412h81.898c-2.848 6.792-11.029 11.079-19.589 10.123h-71.721zm86.369 105.378h-50.944v-13.279h28.169 22.776c3.647 0 6.615 2.967 6.615 6.664-.001 3.648-2.968 6.615-6.616 6.615z"/><path d="m225.812 125.666h60.376c13.359 0 24.228-10.868 24.228-24.227 0-7.623-3.652-14.891-9.77-19.44l-37.166-27.639v-46.181c0-4.131-3.348-7.48-7.48-7.48s-7.48 3.349-7.48 7.48v46.181l-37.166 27.639c-6.118 4.55-9.77 11.817-9.77 19.441.001 13.358 10.869 24.226 24.228 24.226zm-5.531-31.663c0-.001 0-.001 0 0l35.719-26.563 35.719 26.563c2.34 1.74 3.738 4.52 3.738 7.437 0 5.11-4.158 9.268-9.269 9.268h-60.376c-5.111 0-9.269-4.158-9.269-9.268.001-2.917 1.398-5.697 3.738-7.437z"/></g></svg>