<svg id="Layer_1" enable-background="new 0 0 468 468" height="512" viewBox="0 0 468 468" width="512" xmlns="http://www.w3.org/2000/svg"><g><g><g><circle cx="117.16" cy="220.36" r="9"/></g><path d="m356.327 163.418c.354-12.81-6.846-25.162-18.1-31.154 6.031-6.077 9.763-14.444 9.763-23.668v-.688c0-16.541-11.62-30.404-27.082-33.767 4.723-6.028 7.282-13.416 7.28-21.2-.004-18.97-15.416-34.404-34.357-34.404h-128.133c-.632 0-1.262.085-1.871.255l-32.966 9.144h-39.411v-1.228c0-13.073-10.621-23.708-23.676-23.708h-44.1c-13.054 0-23.674 10.635-23.674 23.708v180.056c0 13.073 10.62 23.708 23.675 23.708h44.1c13.055 0 23.676-10.635 23.676-23.708v-164.828h40.364c.632 0 1.262-.085 1.871-.255l32.966-9.144h127.18c11.223 0 20.355 9.154 20.357 20.411.23 10.957-9.398 20.64-20.357 20.415h-66.35c-3.866 0-7 3.134-7 7s3.134 7 7 7h86.158c11.222 0 20.351 9.217 20.351 20.545v.688c0 10.724-8.64 19.462-19.306 19.587l-90.204.001c-3.866 0-7 3.134-7 7s3.134 7 7 7l97.492-.001c11.303-.232 20.934 9.972 20.354 21.234 0 10.803-8.766 19.592-19.54 19.592l-99.808-.003c-3.866 0-7 3.134-7 7s3.134 7 7 7l96.209.003c11.066.184 20.014 9.267 20.015 20.406.23 10.955-9.398 20.638-20.356 20.413h-98.256c-4.363-.11-7.905 4.335-6.823 8.563l5.918 25.831c6.301 27.848-3.51 56.952-24.475 72.469-7.968 6.035-18.724 5.967-26.543.13l.017-35.284c.007-25.936-8.172-50.637-23.653-71.434-2.308-3.101-6.692-3.742-9.795-1.435-3.102 2.309-3.744 6.694-1.436 9.795 13.669 18.361 20.89 40.17 20.884 63.068l-.019 38.507c-.001 1.905.774 3.728 2.147 5.049 12.904 12.411 32.613 13.55 46.788 2.811 25.294-18.721 37.245-53.589 29.734-86.784l-3.96-17.286h89.471c18.484.381 34.742-15.935 34.356-34.415-.001-10.375-4.611-19.694-11.887-26.008 9.041-6.023 15.012-16.32 15.012-27.987zm-278.877 43.346c0 5.353-4.341 9.708-9.676 9.708h-44.1c-5.335 0-9.675-4.355-9.675-9.708v-180.056c.001-5.353 4.341-9.708 9.676-9.708h44.1c5.335 0 9.676 4.355 9.676 9.708v180.056z"/><path d="m45.781 78.084c-3.866 0-7-3.134-7-7v-20.587c0-3.866 3.134-7 7-7s7 3.134 7 7v20.587c0 3.867-3.134 7-7 7z"/></g><g><path d="m378.673 465c-49.255 0-89.327-40.065-89.327-89.313 0-49.247 40.072-89.313 89.327-89.313s89.327 40.066 89.327 89.313c0 49.248-40.072 89.313-89.327 89.313zm0-164.625c-41.535 0-75.327 33.785-75.327 75.313s33.792 75.313 75.327 75.313 75.327-33.786 75.327-75.314c0-41.527-33.792-75.312-75.327-75.312z"/><g><g><circle cx="409.984" cy="358.74" r="10.436"/><circle cx="347.362" cy="358.74" r="10.436"/></g><g><path d="m404.766 419.917c-1.791 0-3.582-.683-4.949-2.05-11.658-11.655-30.629-11.655-42.287 0-2.734 2.735-7.165 2.733-9.899-.001-2.733-2.734-2.733-7.166.001-9.899 17.117-17.113 44.967-17.113 62.084 0 4.463 4.16 1.038 12.162-4.95 11.95z"/></g></g></g></g></svg>