<svg id="Capa_1" enable-background="new 0 0 597.832 597.832" height="512" viewBox="0 0 597.832 597.832" width="512" xmlns="http://www.w3.org/2000/svg"><g><g><path d="m482.123 221.777v-28.927h-134.995v28.927c0 37.21 30.277 67.497 67.497 67.497s67.498-30.287 67.498-67.497zm-95.981 38.695c7.232-6.142 17.472-9.768 28.484-9.768s21.252 3.626 28.484 9.768c-8.003 5.901-17.8 9.517-28.484 9.517s-20.481-3.616-28.484-9.517zm-19.729-48.338h96.425v9.642c0 8.929-2.603 17.193-6.856 24.376-10.742-9.266-25.61-14.734-41.357-14.734s-30.615 5.467-41.357 14.734c-4.252-7.184-6.856-15.447-6.856-24.376v-9.642z"/><circle cx="356.771" cy="154.279" r="9.642"/><circle cx="472.48" cy="154.279" r="9.642"/><path d="m483.531 334.102-20.567-4.416v-14.444c46.139-17.299 77.13-62.02 77.13-111.303l-.01-11.089h19.179c21.271 0 38.57-17.299 38.57-38.57 0-15.486-9.228-28.783-22.428-34.915 2.054-7.839 3.143-15.891 3.143-24.058-.001-52.552-42.755-95.307-95.307-95.307h-137.231c-21.493 0-41.279 7.232-57.238 19.285h-250.202c-21.271 0-38.57 17.298-38.57 38.57v173.564c0 21.271 17.299 38.57 38.57 38.57h44.22l31.753 31.762c4.339 4.32 10.337 6.808 16.45 6.808 12.844 0 23.287-10.443 23.287-23.277v-15.293h155.118c13.557 20.24 33.209 36.371 56.891 45.252v14.454l-8.717 1.871c-15.466-14.232-36.034-23.007-58.655-23.007h-57.855c-47.846 0-86.782 38.927-86.782 86.782 0 10.269 5.419 19.256 13.509 24.386-2.391 4.214-3.867 9.006-3.867 14.184 0 7.434 2.902 14.155 7.521 19.285-2.555 2.835-4.522 6.142-5.805 9.816-.579-.039-1.128-.174-1.716-.174h-9.642c-21.271 0-38.57 17.299-38.57 38.57v38.57c0 21.271 17.299 38.57 38.57 38.57h9.642.01c9.035 12.024 23.277 19.285 38.56 19.285h150.596 13.326 144.636c37.22 0 67.497-30.287 67.497-67.497v-11.417c11.195-3.992 19.285-14.599 19.285-27.153v-16.238c0-67.739-48.077-127.213-114.301-141.426zm75.732-160.538h-19.198l-.039-38.57h19.237c10.636 0 19.285 8.649 19.285 19.285s-8.65 19.285-19.285 19.285zm-213.253-154.279h137.231c41.916 0 76.021 34.105 76.021 76.021 0 6.943-.935 13.779-2.787 20.403h-16.46l-.039-38.579-19.285.01v2.555c0 19.854-16.161 36.015-36.015 36.015-10.105 0-19.603-5.39-24.8-14.049l-.26-.415 11.484-19.14-16.537-9.922-16.527 27.539c-5.911 9.855-16.73 15.987-28.233 15.987s-22.322-6.133-28.243-15.987l-4.609-7.675c.81-1.263 1.716-2.449 2.459-3.761l14.657-25.639-16.739-9.565-14.657 25.639c-13.037 22.814-37.461 36.988-63.756 36.988h-9.633-16.508c-1.851-6.634-2.787-13.48-2.787-20.403.002-41.917 34.107-76.022 76.023-76.022zm-76.021 115.709h19.275l-.058 38.57h-19.217c-10.636 0-19.285-8.649-19.285-19.285s8.649-19.285 19.285-19.285zm-134.995 115.71v34.578c0 3.249-4.522 5.13-6.827 2.825l-37.393-37.403h-52.204c-10.636 0-19.285-8.649-19.285-19.285v-173.564c0-10.636 8.649-19.285 19.285-19.285h231.043c-11.822 15.871-18.909 35.465-18.909 56.736 0 8.167 1.09 16.219 3.143 24.058-13.201 6.133-22.428 19.43-22.428 34.915 0 21.271 17.299 38.57 38.57 38.57h19.189l-.019 11.098c0 16.383 3.491 32.225 9.758 46.756h-163.923zm173.449-46.747.096-69.474c21.098-2.208 40.633-11.716 55.521-26.44l.955 1.601c9.392 15.63 26.546 25.35 44.789 25.35 14.657 0 28.532-6.345 38.319-16.923 9.064 10.549 22.428 16.923 36.555 16.923 13.76 0 26.372-5.053 36.053-13.403l.077 82.356c0 41.279-25.967 78.75-64.614 93.233-7.483 2.806-12.516 10.067-12.516 18.06v17.414l-29.053 21.715-29.053-21.715v-17.414c0-7.994-5.024-15.254-12.516-18.06-38.646-14.482-64.613-51.943-64.613-93.223zm.723 316.736h-116.317v-19.285h123.626c-3.886 5.621-6.354 12.207-7.309 19.285zm-125.959-86.782c0-5.323 4.329-9.642 9.642-9.642h154.279c5.313 0 9.642 4.32 9.642 9.642 0 5.323-4.329 9.642-9.642 9.642h-154.279c-5.313 0-9.642-4.32-9.642-9.642zm57.854-106.067h57.855c37.22 0 67.497 30.287 67.497 67.497 0 5.323-4.329 9.642-9.642 9.642h-9.642-154.28-9.642c-5.313 0-9.642-4.32-9.642-9.642-.001-37.211 30.277-67.497 67.496-67.497zm-48.212 134.994h154.279c5.313 0 9.642 4.32 9.642 9.642 0 5.323-4.329 9.642-9.642 9.642h-156.053c-1.572-4.416-4.137-8.321-7.502-11.455.878-4.425 4.6-7.829 9.276-7.829zm-57.855 77.14v-38.57c0-10.636 8.649-19.285 19.285-19.285h9.642c5.313 0 9.642 4.32 9.642 9.642v19.285h-19.285v19.285h19.285v19.285c0 5.323-4.329 9.643-9.642 9.643h-9.642c-10.635 0-19.285-8.65-19.285-19.285zm48.271 31c5.843-5.294 9.585-12.873 9.585-21.358v-9.642h115.71v13.326c0 9.382 2.951 18.06 7.916 25.244h-113.984c-7.252-.001-13.992-2.864-19.227-7.57zm327.785 7.569h-144.637-13.326c-13.924 0-25.244-11.33-25.244-25.244v-26.652c0-13.914 11.32-25.244 25.244-25.244h11.05c9.623 0 18.272 5.352 22.573 13.953l2.671 5.332h96.425l16.624 33.238 17.25-8.63-12.313-24.608h51.896v9.642c0 26.585-21.628 48.213-48.213 48.213zm67.497-86.782c0 5.323-4.33 9.642-9.642 9.642h-67.497v-42.379c0-6.46 3.211-12.458 8.591-16.045l16.045-10.694-10.693-16.045-16.045 10.693c-10.761 7.174-17.183 19.179-17.183 32.09v42.379h-81.296c-6.383-9.315-15.987-15.727-26.902-18.157 1.35-3.336 2.131-6.962 2.131-10.771 0-7.434-2.902-14.155-7.521-19.285 4.628-5.13 7.521-11.851 7.521-19.285 0-5.178-1.475-9.97-3.867-14.184 8.09-5.13 13.509-14.117 13.509-24.386 0-17.356-5.178-33.508-13.991-47.084l1.957-.424 40.961 30.624 40.952-30.624 23.904 5.12c57.402 12.323 99.067 63.881 99.067 122.575v16.24z"/><circle cx="212.134" cy="376.056" r="9.642"/><circle cx="250.704" cy="356.771" r="9.642"/><circle cx="279.631" cy="385.698" r="9.642"/><circle cx="308.559" cy="356.771" r="9.642"/><circle cx="337.486" cy="376.056" r="9.642"/><path d="m125.352 57.855c-47.846 0-86.782 38.927-86.782 86.782s38.936 86.782 86.782 86.782 86.782-38.927 86.782-86.782-38.936-86.782-86.782-86.782zm-67.497 86.782c0-15.139 5.072-29.072 13.509-40.344l94.332 94.323c-11.262 8.447-25.205 13.519-40.344 13.519-37.22-.001-67.497-30.288-67.497-67.498zm121.485 40.344-94.342-94.323c11.272-8.447 25.215-13.519 40.354-13.519 37.22 0 67.497 30.287 67.497 67.497 0 15.14-5.072 29.073-13.509 40.345z"/></g></g></svg>