<svg id="Layer_1" height="512" viewBox="0 0 91 91" width="512" xmlns="http://www.w3.org/2000/svg" data-name="Layer 1"><g fill="rgb(0,0,0)"><path d="m2.68 89.06h85.41a1.75 1.75 0 0 0 1.75-1.75v-49.19a2 2 0 0 0 -.76-1.51l-4.64-4v-22.89a1.75 1.75 0 0 0 -1.75-1.72h-27.2l-5.78-5a6.81 6.81 0 0 0 -8.64 0l-5.79 5h-27.2a1.75 1.75 0 0 0 -1.75 1.72v22.94l-4.59 3.91a1.83 1.83 0 0 0 -.81 1.55v49.19a1.75 1.75 0 0 0 1.75 1.75zm26.05-26.47-24.27 20.8v-41.49zm57.57-20.74v41.66l-24.3-20.91zm-27.62 22.53 24.64 21.18h-76l24.68-21.18zm26.69-26.38-.93.79v-1.53zm-42.03-32.3a3.36 3.36 0 0 1 4.1 0l2.66 2.3h-9.42zm-33.51 5.77h71.11v30.31l-22.34 19.1h-26.49l-22.34-19.06a1.61 1.61 0 0 0 .06-.44zm-3.5 27.42-1-.82 1-.82z"/><path d="m40.35 50.28a18.65 18.65 0 0 0 13.24-1.28 1.75 1.75 0 0 0 -1.59-3.12 15.4 15.4 0 0 1 -10.57 1.12c-9.59-3.67-7-13.88-6.92-14.31.77-2.9 4.56-10.26 12.9-9.63 9.37.73 9.34 9.38 9.24 11.11-.21 3.6-2.28 6.33-3.94 6.33h-.06a.94.94 0 0 1 -.73-.28 3.7 3.7 0 0 1 -.48-2.26l1.18-9.36c0-.08 0-.15 0-.22a1.75 1.75 0 0 0 -3.46-.39 6.15 6.15 0 0 0 -3.61-1.36h-.15c-3.56 0-7.67 2.83-8.42 8.18a7.4 7.4 0 0 0 5.62 8.65 7.9 7.9 0 0 0 6.21-1.59 4.69 4.69 0 0 0 .47.63 4.36 4.36 0 0 0 3.23 1.5c3.87.18 7.32-4.17 7.64-9.63.39-6.86-3.31-14.09-12.48-14.8-9.56-.74-15.14 6.91-16.54 12.23-2.84 10.76 4.4 16.66 9.22 18.48zm7.64-13a4.36 4.36 0 0 1 -4.68 2.72 3.94 3.94 0 0 1 -2.87-4.73c.54-3.79 3.29-5.17 5-5.17h.07c1.55 0 2.7 1.85 2.73 1.89a1.66 1.66 0 0 0 .4.47z"/></g></svg>