<svg id="Capa_1" enable-background="new 0 0 512 512" height="512" viewBox="0 0 512 512" width="512" xmlns="http://www.w3.org/2000/svg"><g><g><path d="m414.49 263.265v-195.319c0-21.609-17.581-39.19-39.19-39.19h-123.579c-2.731 0-5.343 1.117-7.23 3.092-1.887 1.974-2.884 4.634-2.76 7.362.004.08.009.175.016.265.354 5.419 4.982 9.603 10.433 9.334.227-.01.452-.027.675-.053h122.445c10.582 0 19.19 8.608 19.19 19.19v194.798c-57.273 3.692-103.223 52.795-103.223 110.134 0 17.449 4.128 34.849 12.122 50.368h-264.189c-10.587 0-19.2-8.613-19.2-19.2v-336.1c0-10.582 8.613-19.19 19.2-19.19h123.387c.521.059 1.052.08 1.593.053 5.428-.246 9.648-4.775 9.544-10.176-.002-.119-.006-.243-.011-.353-.254-5.332-4.651-9.524-9.989-9.524h-124.524c-21.615 0-39.2 17.581-39.2 39.19v336.1c0 21.615 17.585 39.2 39.2 39.2h277.475c20.26 24.419 50.824 39.998 84.959 39.998 60.856 0 110.366-49.51 110.366-110.366 0-56.508-42.689-103.224-97.51-109.613zm-12.856 199.979c-49.19 0-90.364-41.192-90.364-90.368 0-49.825 40.535-90.36 90.36-90.36.856 0 1.704.009 2.552.035.006 0 .012-.001.018 0 48.646 1.364 87.8 41.358 87.8 90.328 0 49.827-40.538 90.365-90.366 90.365z"/><path d="m122.814 167.32-37.165 12.669c-14.846 5.06-23.572 20.453-20.298 35.806 4.949 23.212 18.586 67.486 54.315 103.217 35.793 35.793 80.044 49.411 103.236 54.343 2.163.46 4.326.682 6.461.682 13.018 0 24.987-8.241 29.329-20.99l73.366-215.343 9.507-27.9c1.229-3.608.301-7.602-2.395-10.297-2.697-2.695-6.694-3.622-10.296-2.395l-206.009 70.188c-.018.006-.034.014-.051.02zm81.393 115.747c-9.677-5.486-19.111-12.339-27.686-20.913-23.925-23.924-34.5-54.656-39.136-78.67l62.392-21.258c8.092 14.42 23.581 23.849 40.583 23.849 25.634 0 46.49-20.851 46.49-46.48 0-2.314-.174-4.603-.508-6.862l29.732-10.13-60.892 178.722c-17.776-3.422-35.198-9.315-50.975-18.258zm62.643-143.471c0 14.602-11.883 26.48-26.49 26.48-8.412 0-16.176-4.046-21.093-10.488l21.497-7.326 26.085-8.887c.001.073.001.147.001.221zm-39.788 214.195c-21.028-4.472-61.104-16.773-93.253-48.923-32.089-32.089-44.41-72.194-48.897-93.245-1.162-5.449 1.929-10.911 7.19-12.705l26.19-8.927c5.474 26.522 17.57 59.792 44.087 86.309 23.334 23.334 54.247 37.507 86.301 44.119l-8.918 26.177c-1.793 5.26-7.254 8.348-12.7 7.195z"/><path d="m428.376 325.649c-10.59 0-20.149 4.484-26.883 11.656-6.733-7.172-16.293-11.656-26.883-11.656-14.392 0-27.126 8.277-33.232 21.602-6.128 13.371-4.071 28.48 5.392 39.46.124.143.312.358 32.158 35.22 5.776 6.324 14.001 9.952 22.565 9.952s16.789-3.628 22.564-9.951c31.846-34.86 32.033-35.076 32.158-35.22.009-.01.018-.021.027-.031 9.437-10.95 11.492-26.059 5.364-39.43-6.105-13.324-18.838-21.602-33.23-21.602zm12.772 47.911c-1.409 1.55-17.883 19.586-31.857 34.883-2.026 2.219-4.795 3.44-7.798 3.44s-5.772-1.222-7.799-3.441c-18.68-20.447-30.777-33.694-31.867-34.895-4.276-5.021-5.125-11.728-2.268-17.964 2.851-6.22 8.478-9.934 15.051-9.934 9.31 0 16.883 7.573 16.883 16.883 0 5.522 4.478 10 10 10s10-4.478 10-10c0-9.31 7.573-16.883 16.883-16.883 6.573 0 12.199 3.714 15.05 9.934 2.86 6.242 2.008 12.955-2.278 17.977z"/><path d="m199.01 42.58c2.096 5.027 8.018 7.503 13.06 5.41 5.031-2.088 7.5-8.025 5.41-13.061-2.087-5.029-8.026-7.499-13.06-5.41-5.027 2.086-7.505 8.03-5.41 13.061z"/><path d="m223.515 203.46c-17.009 0-30.848 13.838-30.848 30.848 0 17.009 13.838 30.847 30.848 30.847s30.848-13.838 30.848-30.847c-.001-17.01-13.839-30.848-30.848-30.848zm0 41.694c-5.981 0-10.848-4.866-10.848-10.847s4.866-10.848 10.848-10.848 10.848 4.866 10.848 10.848c-.001 5.981-4.867 10.847-10.848 10.847z"/></g></g></svg>