<svg id="Capa_1" enable-background="new 0 0 512 512" height="512" viewBox="0 0 512 512" width="512" xmlns="http://www.w3.org/2000/svg"><g><path d="m347.094 163.359-120-80c-6.137-4.092-14.027-4.472-20.531-.992-6.503 3.48-10.563 10.257-10.563 17.633v160c0 7.376 4.06 14.153 10.562 17.634 6.487 3.472 14.378 3.109 20.531-.992l120-80c5.565-3.71 8.907-9.955 8.907-16.642s-3.342-12.932-8.906-16.641zm-111.094 59.271v-85.26l63.944 42.63z"/><path d="m452 0h-392c-33.084 0-60 26.916-60 60v240c0 33.084 26.916 60 60 60h392c33.084 0 60-26.916 60-60v-240c0-33.084-26.916-60-60-60zm20 300c0 11.028-8.972 20-20 20h-392c-11.028 0-20-8.972-20-20v-240c0-11.028 8.972-20 20-20h392c11.028 0 20 8.972 20 20z"/><path d="m492 432h-299.44c-8.256-23.278-30.487-40-56.56-40s-48.303 16.722-56.56 40h-59.44c-11.046 0-20 8.954-20 20s8.954 20 20 20h59.44c8.256 23.278 30.487 40 56.56 40s48.303-16.722 56.56-40h299.44c11.046 0 20-8.954 20-20s-8.954-20-20-20zm-356 40c-11.028 0-20-8.972-20-20s8.972-20 20-20 20 8.972 20 20-8.972 20-20 20z"/></g></svg>