<svg id="Capa_1" enable-background="new 0 0 512 512" height="512" viewBox="0 0 512 512" width="512" xmlns="http://www.w3.org/2000/svg"><g><path d="m103.693 207.387c57.177 0 103.693-46.517 103.693-103.693 0-21.874-6.731-42.792-19.466-60.493-2.418-3.363-7.106-4.127-10.468-1.708s-4.127 7.105-1.708 10.468c10.887 15.134 16.642 33.022 16.642 51.733 0 48.905-39.788 88.693-88.693 88.693s-88.693-39.788-88.693-88.694 39.788-88.693 88.693-88.693c17.542 0 34.499 5.109 49.038 14.776 3.447 2.296 8.104 1.358 10.397-2.093 2.294-3.449 1.356-8.104-2.093-10.397-17.007-11.308-36.836-17.286-57.342-17.286-57.176 0-103.693 46.517-103.693 103.693s46.517 103.694 103.693 103.694z"/><path d="m103.693 304.613c-57.176 0-103.693 46.517-103.693 103.694s46.517 103.693 103.693 103.693 103.693-46.517 103.693-103.693-46.516-103.694-103.693-103.694zm0 192.387c-48.905 0-88.693-39.788-88.693-88.693s39.788-88.693 88.693-88.693 88.693 39.788 88.693 88.693-39.787 88.693-88.693 88.693z"/><path d="m408.307 304.613c-57.177 0-103.693 46.517-103.693 103.693s46.516 103.694 103.693 103.694 103.693-46.517 103.693-103.693-46.517-103.694-103.693-103.694zm0 192.387c-48.905 0-88.693-39.788-88.693-88.693s39.788-88.693 88.693-88.693 88.693 39.787 88.693 88.693-39.788 88.693-88.693 88.693z"/><path d="m256 215.403c17.396 0 31.549-14.152 31.549-31.549 0-17.396-14.152-31.548-31.549-31.548s-31.549 14.152-31.549 31.548c0 17.397 14.153 31.549 31.549 31.549zm0-48.096c9.125 0 16.549 7.423 16.549 16.548s-7.424 16.549-16.549 16.549-16.549-7.424-16.549-16.549 7.424-16.548 16.549-16.548z"/><path d="m184.371 264.017v40.08c0 4.143 3.357 7.5 7.5 7.5s7.5-3.357 7.5-7.5v-40.08c0-13.546 11.02-24.565 24.564-24.565h64.129c13.545 0 24.564 11.02 24.564 24.565v40.08c0 4.143 3.357 7.5 7.5 7.5s7.5-3.357 7.5-7.5v-40.08c0-21.816-17.749-39.565-39.564-39.565h-64.129c-21.815-.001-39.564 17.748-39.564 39.565z"/><path d="m223.936 264.532c-4.143 0-7.5 3.357-7.5 7.5v48.097c0 4.143 3.357 7.5 7.5 7.5s7.5-3.357 7.5-7.5v-48.097c0-4.142-3.358-7.5-7.5-7.5z"/><path d="m288.064 264.532c-4.143 0-7.5 3.357-7.5 7.5v48.097c0 4.143 3.357 7.5 7.5 7.5s7.5-3.357 7.5-7.5v-48.097c0-4.142-3.357-7.5-7.5-7.5z"/><path d="m408.307 207.387c57.176 0 103.693-46.517 103.693-103.694s-46.517-103.693-103.693-103.693-103.694 46.517-103.694 103.693 46.517 103.694 103.694 103.694zm0-192.387c48.905 0 88.693 39.788 88.693 88.693s-39.788 88.693-88.693 88.693-88.693-39.788-88.693-88.693 39.787-88.693 88.693-88.693z"/><path d="m376.242 157.044c12.976 0 23.532-10.557 23.532-23.532v-51.613c0-3.922 2.657-7.325 6.463-8.276l42.025-10.507c.073-.019.244-.061.442.094s.198.332.198.407v39.953c-2.647-1.034-5.523-1.608-8.532-1.608-12.976 0-23.532 10.557-23.532 23.532s10.557 23.532 23.532 23.532 23.532-10.557 23.532-23.532v-61.877c0-4.812-2.175-9.27-5.968-12.23-3.792-2.961-8.645-3.988-13.312-2.823l-42.023 10.506c-10.494 2.624-17.824 12.012-17.824 22.829v29.688c-2.647-1.034-5.523-1.608-8.532-1.608-12.976 0-23.532 10.557-23.532 23.532s10.556 23.533 23.531 23.533zm64.129-23.017c-4.705 0-8.532-3.827-8.532-8.532s3.827-8.532 8.532-8.532 8.532 3.827 8.532 8.532-3.827 8.532-8.532 8.532zm-64.129-9.048c4.705 0 8.532 3.827 8.532 8.532s-3.827 8.532-8.532 8.532-8.532-3.827-8.532-8.532 3.827-8.532 8.532-8.532z"/><path d="m456.403 368.742h-16.032c-8.556 0-15.517 6.96-15.517 15.516v.517h-33.097v-.517c0-8.556-6.96-15.516-15.516-15.516h-16.031c-8.556 0-15.517 6.96-15.517 15.516v48.097c0 8.556 6.961 15.517 15.517 15.517h16.032c8.556 0 15.516-6.961 15.516-15.517v-.516h33.097v.516c0 8.556 6.961 15.517 15.517 15.517h16.032c8.556 0 15.516-6.961 15.516-15.517v-48.097c-.001-8.556-6.961-15.516-15.517-15.516zm-79.645 63.612c0 .285-.231.517-.516.517h-16.032c-.285 0-.517-.231-.517-.517v-48.097c0-.284.231-.516.517-.516h16.032c.284 0 .516.231.516.516zm15-15.515v-17.064h33.097v17.064zm65.161 15.515c0 .285-.231.517-.516.517h-16.032c-.285 0-.517-.231-.517-.517v-48.097c0-.284.231-.516.517-.516h16.032c.284 0 .516.231.516.516z"/><path d="m88.998 72.229c-9.016 0-17.413 3.503-23.647 9.863-6.131 6.256-9.404 14.541-9.219 23.331.275 13.104 3.517 25.562 9.128 35.079 7.143 12.115 17.945 18.788 30.418 18.788 1.982 0 4.047-.176 6.136-.521 1.248-.207 2.513-.207 3.759 0 2.089.346 4.154.521 6.138.521 25.975 0 39.564-27.969 39.564-55.597 0-9.142-2.655-16.409-7.892-21.6-1.882-1.865-4.011-3.382-6.344-4.62 5.96-6.268 9.197-14.881 8.656-23.767-.164-2.693-1.763-5.092-4.187-6.279-10.095-4.946-22.113-4.188-31.364 1.98-2.518 1.678-4.733 3.709-6.627 5.989l-.724-2.172c-1.311-3.931-5.561-6.053-9.486-4.744-3.93 1.31-6.054 5.558-4.744 9.486l4.746 14.238c-1.303.009-2.597.023-3.911.023-.133.002-.252.002-.4.002zm22.712 72.061c-1.164 0-2.404-.107-3.688-.32-1.437-.237-2.883-.356-4.329-.356s-2.894.119-4.33.356c-1.282.213-2.521.32-3.686.32-17.407 0-24.218-23.433-24.55-39.184-.1-4.722 1.653-9.166 4.936-12.515 3.39-3.459 7.982-5.363 12.936-5.363h.019c2.635 0 5.211-.021 7.774-.043 15.505-.13 30.156-.263 36.031 5.562 2.322 2.302 3.451 5.883 3.451 10.946 0 29.786-14.69 40.597-24.564 40.597zm6.754-82.401c3.559-2.371 7.771-3.215 11.887-2.487-.907 4.075-3.309 7.644-6.867 10.017s-7.78 3.217-11.887 2.486c.907-4.076 3.308-7.644 6.867-10.016z"/><path d="m151.79 368.742h-32.064c-6.19 0-11.827 2.406-16.032 6.328-4.206-3.922-9.842-6.328-16.032-6.328h-32.065c-4.143 0-7.5 3.357-7.5 7.5v64.129c0 4.143 3.357 7.5 7.5 7.5h32.064c4.705 0 8.532 3.827 8.532 8.532 0 4.143 3.357 7.5 7.5 7.5s7.5-3.357 7.5-7.5c0-4.705 3.827-8.532 8.532-8.532h32.064c4.143 0 7.5-3.357 7.5-7.5v-64.129c.001-4.142-3.356-7.5-7.499-7.5zm-64.129 64.129h-24.564v-49.129h24.564c4.705 0 8.532 3.827 8.532 8.532v42.197c-2.646-1.033-5.524-1.6-8.532-1.6zm56.629 0h-24.564c-3.008 0-5.886.567-8.532 1.601v-42.197c0-4.705 3.827-8.532 8.532-8.532h24.564z"/></g></svg>