<svg id="Layer_1" height="512" viewBox="0 0 64 64" width="512" xmlns="http://www.w3.org/2000/svg" data-name="Layer 1"><path d="m60 25c-.009 0-.017 0-.026 0l-6.074-16.7a3 3 0 1 0 -3.8 0l-6.074 16.7c-.009 0-.017 0-.026 0s-.017 0-.026 0l-6.074-16.7a3 3 0 1 0 -3.8 0l-1.587 4.357 1.879.684 1.58-4.341h.028s.017 0 .026 0l6.074 16.7a3 3 0 1 0 3.8 0l6.074-16.7h.026s.017 0 .026 0l6.074 16.7a2.983 2.983 0 1 0 1.9-.7z"/><path d="m1 53h2v9h-2z"/><path d="m5 55h2v7h-2z"/><path d="m9 51h2v11h-2z"/><path d="m13 45h2v17h-2z"/><path d="m17 49h2v13h-2z"/><path d="m21 55h2v7h-2z"/><path d="m25 57h2v5h-2z"/><path d="m29 51h2v11h-2z"/><path d="m33 45h2v17h-2z"/><path d="m37 47h2v15h-2z"/><path d="m41 56h2v6h-2z"/><path d="m45 57h2v5h-2z"/><path d="m49 53h2v9h-2z"/><path d="m53 47h2v15h-2z"/><path d="m57 51h2v11h-2z"/><path d="m61 55h2v7h-2z"/><path d="m25.422 18.447a3.993 3.993 0 0 1 5.566-1.678 15.058 15.058 0 1 0 -11.331 14.763 3.98 3.98 0 0 1 .383-2.319zm-10.172-2.447h1.5a3.136 3.136 0 0 1 3.25 3 3.1 3.1 0 0 1 -3 2.977v1.023h-2v-1.023a3.1 3.1 0 0 1 -3-2.977h2a1.147 1.147 0 0 0 1.25 1h1.5a1.162 1.162 0 0 0 1.25-1 1.162 1.162 0 0 0 -1.25-1h-1.5a3.136 3.136 0 0 1 -3.25-3 3.1 3.1 0 0 1 3-2.977v-1.023h2v1.023a3.1 3.1 0 0 1 3 2.977h-2a1.162 1.162 0 0 0 -1.25-1h-1.5a1.147 1.147 0 0 0 -1.25 1 1.147 1.147 0 0 0 1.25 1z"/><path d="m30.789 19.343a2 2 0 0 0 -3.578 0l-5.382 10.763a2 2 0 0 0 1.789 2.894h10.764a2 2 0 0 0 1.789-2.895zm-7.171 11.657 5.382-10.764 5.387 10.764z"/><path d="m28 23h2v4h-2z"/><path d="m28 28h2v2h-2z"/></svg>