<svg id="Capa_1" enable-background="new 0 0 512 512" height="512" viewBox="0 0 512 512" width="512" xmlns="http://www.w3.org/2000/svg"><g><path d="m426.053 90.284c0-4.166 3.373-7.512 7.512-7.512s7.512 3.346 7.512 7.512v340.645c0 22.309-9.127 42.577-23.811 57.261-14.713 14.71-34.982 23.81-57.29 23.81h-207.98c-22.279 0-42.577-9.1-57.261-23.81-14.684-14.684-23.811-34.952-23.811-57.261v-24.266c0-4.139 3.373-7.512 7.512-7.512s7.484 3.373 7.484 7.512v24.266c0 18.17 7.455 34.695 19.416 46.659 11.992 11.99 28.519 19.417 46.659 19.417h207.98c18.17 0 34.698-7.427 46.659-19.417 11.99-11.964 19.418-28.489 19.418-46.659v-340.645zm-86.855 136.547v69.988c0 17.745-7.258 33.875-18.936 45.582-11.707 11.707-27.837 18.964-45.61 18.964-17.746 0-33.902-7.257-45.582-18.964-11.707-11.707-18.964-27.837-18.964-45.582v-24.775c-12.842-1.7-24.379-7.653-33.137-16.412-10.432-10.403-16.895-24.803-16.895-40.621v-44.192l-8.617-8.617c-8.447-8.447-12.643-19.531-12.643-30.643 0-11.085 4.195-22.196 12.643-30.615 16.838-16.838 44.418-16.838 61.257 0l4.904 4.903 4.904-4.903c16.752-16.781 44.475-16.781 61.256 0 8.42 8.419 12.643 19.53 12.643 30.615 0 11.111-4.223 22.195-12.643 30.643l-8.645 8.617v44.192c0 15.818-6.463 30.218-16.895 40.621-8.76 8.759-20.297 14.712-33.139 16.412v24.775c0 13.607 5.586 25.995 14.57 34.98 8.986 8.985 21.373 14.542 34.98 14.542 13.635 0 25.995-5.557 34.979-14.542 8.986-8.985 14.57-21.374 14.57-34.98v-69.988c-4.422-1.275-8.361-3.656-11.537-6.831-4.875-4.876-7.879-11.594-7.879-19.021 0-7.455 3.004-14.173 7.879-19.049 4.877-4.875 11.623-7.88 19.049-7.88 7.428 0 14.145 3.005 19.022 7.88 4.875 4.876 7.881 11.594 7.881 19.049 0 7.428-3.006 14.145-7.881 19.021-3.172 3.175-7.112 5.556-11.534 6.831zm.936-34.3c-2.154-2.154-5.131-3.486-8.42-3.486-3.287 0-6.293 1.332-8.447 3.486s-3.486 5.159-3.486 8.447c0 3.289 1.332 6.265 3.486 8.419 2.467 2.438 5.756 3.6 8.986 3.458 2.863-.141 5.697-1.275 7.881-3.458 2.154-2.154 3.486-5.13 3.486-8.419 0-3.288-1.332-6.292-3.486-8.447zm-122.544 14.627c18.512-18.51 37.049-37.049 55.561-55.559 5.498-5.5 8.277-12.785 8.277-20.041 0-7.258-2.75-14.515-8.25-20.014-10.971-10.942-29.111-10.942-40.053 0l-5.727 5.697c-2.777 2.807-5.357 4.536-9.014 4.79-3.686.256-6.946-1.162-10.575-4.79l-5.697-5.697c-11.027-11.026-29.055-11.026-40.053 0-5.5 5.499-8.25 12.756-8.25 20.014 0 7.256 2.75 14.541 8.25 20.041 18.51 18.51 36.907 37.163 55.531 55.559zm-42.521-21.288v29.141c0 11.68 4.791 22.309 12.502 30.02 7.709 7.71 18.34 12.5 30.048 12.5 11.678 0 22.309-4.79 30.02-12.5 7.709-7.711 12.5-18.34 12.5-30.02v-29.197l-32.74 32.741c-2.863 2.863-6.18 4.365-9.779 4.365-3.486 0-6.776-1.417-9.753-4.337-11.14-10.999-21.94-21.827-32.798-32.713zm-21.004 269.975c-4.139 0-7.484-3.345-7.484-7.483 0-4.139 3.346-7.512 7.484-7.512h48.529c4.166 0 7.512 3.373 7.512 7.512s-3.346 7.483-7.512 7.483zm155.313 0c-4.139 0-7.484-3.345-7.484-7.483 0-4.139 3.346-7.512 7.484-7.512h48.529c4.166 0 7.512 3.373 7.512 7.512s-3.346 7.483-7.512 7.483zm-53.378-39.259c8.76 0 16.695 3.57 22.451 9.296 5.754 5.755 9.326 13.691 9.326 22.479 0 8.759-3.572 16.696-9.326 22.451-5.756 5.754-13.691 9.298-22.451 9.298-8.787 0-16.725-3.544-22.479-9.298-5.727-5.755-9.297-13.692-9.297-22.451 0-8.788 3.57-16.725 9.297-22.479 5.754-5.726 13.692-9.296 22.479-9.296zm11.85 19.927c-3.033-3.061-7.229-4.933-11.85-4.933-4.648 0-8.816 1.871-11.85 4.933-3.061 3.033-4.932 7.199-4.932 11.849 0 4.62 1.871 8.815 4.932 11.849 3.033 3.033 7.201 4.904 11.85 4.904 4.621 0 8.816-1.871 11.85-4.904s4.902-7.229 4.902-11.849c0-4.65-1.869-8.816-4.902-11.849zm-150.664-397.763h277.629c4.139 0 7.484 3.373 7.484 7.513v345.944c0 4.139-3.346 7.483-7.484 7.483h-277.629c-4.139 0-7.512-3.345-7.512-7.483v-345.944c0-4.14 3.373-7.513 7.512-7.513zm270.117 14.996h-262.633v330.949h262.633zm-301.383 318.93c0 4.166-3.346 7.512-7.484 7.512-4.139 0-7.512-3.346-7.512-7.512v-340.645c0-8.814 3.6-16.837 9.412-22.619 5.781-5.811 13.805-9.412 22.619-9.412h306.09c8.815 0 16.809 3.601 22.621 9.412 5.781 5.782 9.41 13.805 9.41 22.619v24.267c0 4.139-3.373 7.512-7.512 7.512s-7.512-3.373-7.512-7.512v-24.267c0-4.676-1.9-8.928-4.988-12.018-3.09-3.09-7.342-5.018-12.02-5.018h-306.09c-4.676 0-8.928 1.928-12.018 5.018s-5.018 7.342-5.018 12.018v340.645z"/></g></svg>