<svg id="Capa_1" enable-background="new 0 0 512 512" height="512" viewBox="0 0 512 512" width="512" xmlns="http://www.w3.org/2000/svg"><g><path d="m501.034 106.425c14.621-14.621 14.621-38.412 0-53.033l-42.426-42.426c-14.621-14.621-38.412-14.621-53.033 0l-356.55 356.549c-.7.7-1.255 1.532-1.632 2.448l-45.688 110.958c-3.469 8.429-1.549 18.038 4.894 24.48 6.442 6.443 16.051 8.363 24.481 4.894l110.957-45.688c.915-.377 1.747-.932 2.448-1.632zm-84.853-84.852c8.773-8.773 23.047-8.773 31.82 0l42.426 42.426c8.773 8.773 8.772 23.047 0 31.82l-37.123 37.123-74.246-74.246zm-47.73 47.729 74.246 74.246-21.213 21.213-74.246-74.246zm-343.08 427.123c-2.813 1.158-6.018.518-8.165-1.63s-2.787-5.352-1.63-8.164l10.469-25.424 24.749 24.75zm40.448-16.656-33.588-33.588 24.749-60.104 68.943 68.943zm41.543-64.524 125.24-125.24c2.929-2.93 2.929-7.678 0-10.607s-7.677-2.929-10.607 0l-125.24 125.24-31.82-31.82 271.696-271.696 31.82 31.82-125.237 125.237c-2.929 2.929-2.929 7.678 0 10.607s7.677 2.929 10.607 0l125.237-125.237 31.82 31.82-271.697 271.696z"/></g></svg>