<svg id="Layer_1" enable-background="new 0 0 468 468" height="512" viewBox="0 0 468 468" width="512" xmlns="http://www.w3.org/2000/svg"><g><path d="m425.935 376.996-24.424-24.937c-28.85-34.74-44.094-80.196-44.094-131.497v-32.76c0-54.208-36.454-100.214-86.56-115.637 5.449-7.497 8.673-16.709 8.673-26.664-.001-25.089-20.426-45.501-45.53-45.501s-45.529 20.412-45.529 45.501c0 9.956 3.224 19.167 8.673 26.664-50.106 15.423-86.56 61.428-86.56 115.637v31.732c0 39.544-9.281 79.462-30.64 113.059-10.563 16.615-24.766 30.269-38.099 44.635-6.981 7.521-1.466 20.164 8.795 20.164h100.968c5.472 39.809 40.323 70.608 82.392 70.608s76.92-30.799 82.393-70.608h100.968c10.409 0 15.857-12.96 8.574-20.396zm-191.935-352.996c11.871 0 21.529 9.646 21.529 21.501 0 12.011-9.89 21.146-21.529 21.146-11.649 0-21.529-9.169-21.529-21.146 0-11.855 9.658-21.501 21.529-21.501zm0 420c-28.785 0-52.822-20.105-58.083-46.608h116.16c-5.271 26.517-29.302 46.608-58.077 46.608zm-155.851-70.608c12.795-13.786 23.537-28.646 32.053-45.517h47.994c6.627 0 12-5.373 12-12s-5.373-12-12-12h-37.689c9.284-25.807 14.075-54.201 14.075-84.34v-31.732c0-53.572 44.599-97.156 99.417-97.156s99.417 43.584 99.417 97.156v32.76c0 29.721 4.681 57.746 13.759 83.313h-67.518c-6.627 0-12 5.373-12 12s5.373 12 12 12h77.684c8.238 16.54 18.519 32.295 31.47 45.517h-310.662z"/><g><path d="m412.452 278.161c-8.148 0-14.082-8.496-11.258-16.155 7.17-19.446 10.806-39.91 10.806-60.822 0-24.062-4.775-47.384-14.194-69.319-2.615-6.09.202-13.146 6.292-15.761 6.09-2.616 13.146.203 15.761 6.292 10.71 24.944 16.141 51.452 16.141 78.788 0 23.755-4.134 47.012-12.288 69.125-1.788 4.849-6.377 7.852-11.26 7.852z"/></g><g><path d="m55.549 278.164c-4.883 0-9.472-3.002-11.26-7.852-8.154-22.113-12.289-45.371-12.289-69.128 0-28.04 5.704-55.176 16.954-80.655 2.678-6.063 9.763-8.808 15.824-6.13 6.063 2.677 8.808 9.762 6.131 15.825-9.892 22.405-14.909 46.279-14.909 70.96 0 20.915 3.636 41.379 10.807 60.824 2.811 7.624-3.064 16.156-11.258 16.156z"/></g><g><circle cx="232.797" cy="315.875" r="14"/></g></g></svg>