<svg id="svg8" height="512" viewBox="0 0 16.933333 16.933334" width="512" xmlns="http://www.w3.org/2000/svg" xmlns:svg="http://www.w3.org/2000/svg"><g id="layer1" transform="translate(0 -280.067)"><path id="rect1046" d="m2.7189052 280.59809c-.43304 0-.78874.35679-.7922.7891-.30554.20621-.56154.60799-.6997 1.23455-.005.0184-.008.0373-.008.0563 0 1.93333.19074 3.22111 1.47898 4.85965.0208.0267.0466.0492.076.0661l2.92954 1.69137-1.10484 4.12584c-.0378.14114.0459.28619.18707.32401.14114.0378.28567-.0464.32349-.18758l1.1591-4.32274c.0304-.11541-.0202-.23692-.1235-.29662l-3.04685-1.75803c-1.19047-1.52626-1.34321-2.60103-1.34565-4.46071.05-.21692.11007-.38323.17415-.51573v1.3069c0 .43516.35756.79271.79272.79271h.22376c.18043.66878.48973 1.3032.91518 2.0252.0233.039.0562.0714.0956.094l2.39056 1.37511c.0279.0157.0583.0262.0899.031l4.0741698.67748c.363893.0806.456307-.48116.08578-.52142l-4.0271498-.66973-2.27738-1.31051c-.37084-.63298-.63836-1.1615-.81028-1.70119h3.4742c.43516 0 .79324-.35755.79324-.79271v-2.11719c0-.43516-.35808-.7953-.79324-.7953zm0 .52969h4.23437c.15116 0 .26355.11445.26355.26561v2.11719c0 .15115-.11239.26355-.26355.26355h-4.23437c-.15115 0-.26355-.1124-.26355-.26355v-2.11719c0-.15116.1124-.26561.26355-.26561zm3.43959.52916a.52916671.52916671 0 0 0 -.52917.52917.52916671.52916671 0 0 0 .52917.52917.52916671.52916671 0 0 0 .52916-.52917.52916671.52916671 0 0 0 -.52916-.52917zm4.0643508 1.35341c-1.1658708 0-2.1171908.95131-2.1171908 2.11718s.95132 2.11719 2.1171908 2.11718c1.165869 0 2.115116-.95131 2.115116-2.11718s-.949247-2.11718-2.115116-2.11718zm0 .52916c.879886 0 1.585949.70814 1.585949 1.58802 0 .87989-.706063 1.58802-1.585949 1.58802-.8798878 0-1.5880208-.70813-1.5880208-1.58802 0-.87988.708133-1.58802 1.5880208-1.58802zm2.129069 3.61684v.00051c-.03736.001-.074.0108-.107487.0274-.3385.1681-.661844.36545-.816488.709s-.06055.77288.275436 1.21853c.03506.0465.08447.0801.140559.0956l1.318266.35553.306958 1.15238c.08393.35121.611726.21206.511597-.13487l-.345715-1.3007c-.02403-.0911-.09469-.16254-.185519-.18758l-1.343587-.36329c-.206253-.30175-.25254-.492-.195337-.61908.05588-.12414.258886-.26742.505912-.40204l2.038636.53485.701249 2.64841-1.205095 1.20716-2.228287-.61494c-.169106-.0473-.336543.0802-.335897.25579v3.9269c0 .15116-.113429.27388-.264584.27388h-6.4006468c-.14867 0-.22296-.10702-.18448-.25063l.29765-1.10949c.0378-.14114-.0454-.28568-.18655-.3235-.14114-.0378-.28619.0459-.32401.18707l-.0372.13953-.29662 1.10639c-.11327.42273.15405.77154.59169.77153 2.41261.007 4.33049.008 6.5401748.008.435161 0 .794266-.36789.794267-.80305.000059-1.19373-.000279-2.38746-.000517-3.58118l2.04277.56431c.09133.0246.188852-.001.255798-.0682l1.422135-1.42213c.06682-.0669.09283-.16447.06821-.2558l-.777214-2.94556c-.02493-.0919-.09737-.1634-.189653-.18707l-2.308386-.60564c-.02546-.007-.05175-.009-.07803-.008z" font-variant-ligatures="normal" font-variant-position="normal" font-variant-caps="normal" font-variant-numeric="normal" font-variant-alternates="normal" font-feature-settings="normal" text-indent="0" text-align="start" text-decoration-line="none" text-decoration-style="solid" text-decoration-color="rgb(0,0,0)" text-transform="none" text-orientation="mixed" white-space="normal" shape-padding="0" isolation="auto" mix-blend-mode="normal" solid-color="rgb(0,0,0)" solid-opacity="1" vector-effect="none" paint-order="normal"/></g></svg>