<?xml version="1.0"?>
<svg xmlns="http://www.w3.org/2000/svg" id="Layer_3" data-name="Layer 3" viewBox="0 0 64 64" width="512" height="512"><path d="M61,49l-.8-.6a7.213,7.213,0,0,0-7.215-.688A9,9,0,0,0,44,39H37V36.647A10.045,10.045,0,0,0,39.129,35H52a5.006,5.006,0,0,0,5-5V6a5.006,5.006,0,0,0-5-5H12A5.006,5.006,0,0,0,7,6V30a5.006,5.006,0,0,0,5,5H24.871A10.045,10.045,0,0,0,27,36.647V39H20a9,9,0,0,0-8.985,8.713A7.212,7.212,0,0,0,3.8,48.4L3,49a5.026,5.026,0,0,0-2,4v9a1,1,0,0,0,1,1H62a1,1,0,0,0,1-1V53A5.027,5.027,0,0,0,61,49ZM22,28H21a1,1,0,0,1,0-2h1Zm1-6.229-.825-1.651a4.207,4.207,0,0,1,.156-4.066A4.252,4.252,0,0,1,25.954,14a4.669,4.669,0,0,1,3.894,2.085l.314.471,1.662-1.112-.313-.469A6.659,6.659,0,0,0,27.74,12.25a8.222,8.222,0,0,1,7.633-.522L38.164,13a6.08,6.08,0,0,1,3.062,7.939l-.3.686L39.9,19.553a1,1,0,0,0-.666-.527,1.015,1.015,0,0,0-.83.174l-1.6,1.2a8,8,0,0,1-9.6,0l-1.6-1.2a1,1,0,0,0-1.5.353ZM42,26h1a1,1,0,0,1,0,2H42ZM12,33a3,3,0,0,1-3-3V6a3,3,0,0,1,3-3H52a3,3,0,0,1,3,3V30a3,3,0,0,1-3,3H40.647A9.883,9.883,0,0,0,41.8,30H43a3,3,0,0,0,0-6h-.918l.98-2.271a8.078,8.078,0,0,0-4.07-10.551L36.2,9.907a10.253,10.253,0,0,0-10.231,1.111L24.394,12.2l0,0a6.221,6.221,0,0,0-4.014,8.812L21.875,24H21a3,3,0,0,0,0,6h1.2a9.883,9.883,0,0,0,1.151,3Zm12-5V24.236l1.358-2.716L26,22a10,10,0,0,0,12,0l.641-.48L40,24.236V28a8,8,0,0,1-16,0Zm8,10a9.986,9.986,0,0,0,3-.461v2.047l-3,3-3-3V37.539A9.986,9.986,0,0,0,32,38ZM13,48a7.009,7.009,0,0,1,7-7h7.586l3.707,3.707a1,1,0,0,0,1.414,0L36.414,41H44a7.009,7.009,0,0,1,7,7v1h0a5.133,5.133,0,0,1-6,0l-.8-.6a7.191,7.191,0,0,0-8.4,0L35,49a5.133,5.133,0,0,1-6,0l-.8-.6a7.191,7.191,0,0,0-8.4,0L19,49a5.133,5.133,0,0,1-6,0ZM61,61H3V53a3.012,3.012,0,0,1,1.2-2.4L5,50a5.133,5.133,0,0,1,6,0l.8.6a7.191,7.191,0,0,0,8.4,0L21,50a5.133,5.133,0,0,1,6,0l.8.6a7.191,7.191,0,0,0,8.4,0L37,50a5.133,5.133,0,0,1,6,0l.8.6a7.191,7.191,0,0,0,8.4,0L53,50a5.133,5.133,0,0,1,6,0l.8.6A3.014,3.014,0,0,1,61,53Z"/><path d="M46,16h3.586l-3.293,3.293A1,1,0,0,0,47,21h6V19H49.415l3.292-3.293A1,1,0,0,0,52,14H46Z"/><path d="M42.293,10.293A1,1,0,0,0,43,12h6V10H45.415l3.292-3.293A1,1,0,0,0,48,5H42V7h3.586Z"/><rect x="26" y="26" width="4" height="2"/><rect x="34" y="26" width="4" height="2"/><path d="M33.707,33.707l1-1-1.414-1.414L32.586,32H31.414l-.707-.707-1.414,1.414,1,1A1,1,0,0,0,31,34h2A1,1,0,0,0,33.707,33.707Z"/></svg>
