<svg id="Capa_1" enable-background="new 0 0 512 512" height="512" viewBox="0 0 512 512" width="512" xmlns="http://www.w3.org/2000/svg"><path d="m289.456 107.276c-2.925 2.933-2.919 7.681.014 10.606l71.305 71.125c1.431 1.428 3.346 2.19 5.298 2.19.879 0 1.766-.155 2.619-.473l67.319-25.106c3.881-1.448 5.854-5.767 4.407-9.648s-5.767-5.853-9.648-4.407l-62.81 23.425-67.897-67.726c-2.933-2.926-7.682-2.92-10.607.014z"/><path d="m373.953 83.036c0-4.353-3.529-7.882-7.882-7.882s-7.882 3.529-7.882 7.882 3.529 7.882 7.882 7.882 7.882-3.529 7.882-7.882z"/><path d="m466.912 191.759c4.353 0 7.882-3.529 7.882-7.882s-3.529-7.882-7.882-7.882-7.882 3.529-7.882 7.882 3.529 7.882 7.882 7.882z"/><ellipse cx="265.231" cy="183.877" rx="7.882" ry="7.882" transform="matrix(.383 -.924 .924 .383 -6.149 358.551)"/><circle cx="437.376" cy="112.572" r="7.882"/><circle cx="437.376" cy="255.182" r="7.882"/><path d="m500.216 304.273h-19.807c-6.498 0-11.784 5.287-11.784 11.785v9.871h-13.134v-6.615c0-6.154-1.474-12.017-4.104-17.23 38.083-27.448 60.613-71.158 60.613-118.386 0-80.466-65.464-145.93-145.93-145.93s-145.93 65.464-145.93 145.93c0 4.142 3.358 7.5 7.5 7.5s7.5-3.358 7.5-7.5c0-72.195 58.735-130.93 130.93-130.93s130.93 58.735 130.93 130.93c0 42.565-20.4 81.946-54.853 106.555-4.963-4.276-11.06-7.321-17.859-8.609l-122.362-23.183c1.331-2.909.808-6.457-1.586-8.852-3.078-3.078-8.068-3.078-11.146 0-1.649 1.649-2.406 3.847-2.288 6.006l-34.231-6.485c-5.845-10.097-10.315-20.897-13.268-32.165-1.05-4.007-5.149-6.404-9.156-5.354s-6.404 5.15-5.354 9.156c2.237 8.534 5.247 16.83 8.987 24.802l-74.848-14.181c-3.209-.609-6.496.237-9.012 2.321-2.517 2.084-3.961 5.155-3.961 8.423v83.795h-102.688v-108.74c0-6.498-5.286-11.784-11.784-11.784h-19.807c-6.498 0-11.784 5.286-11.784 11.784v249.545c0 4.142 3.358 7.5 7.5 7.5h28.375c4.142 0 7.5-3.358 7.5-7.5v-26.844h425.25v26.844c0 4.142 3.358 7.5 7.5 7.5h28.375c4.142 0 7.5-3.358 7.5-7.5v-150.675c0-6.498-5.286-11.784-11.784-11.784zm-339.153-57.233 260.433 49.342c11.007 2.085 18.996 11.729 18.996 22.932v6.615h-279.429zm-132.688 212.192h-13.375v-238.83h13.375zm15-34.344v-17.98h394.254c4.142 0 7.5-3.358 7.5-7.5s-3.358-7.5-7.5-7.5h-394.254v-50.98h110.129c.02 0 .039.003.058.003h294.428c.02 0 .038-.003.058-.003h20.576v83.96zm453.625 34.344h-13.375v-139.959h13.375z"/><path d="m93.606 316.26c21.948 0 39.804-17.856 39.804-39.804s-17.856-39.804-39.804-39.804-39.804 17.856-39.804 39.804 17.856 39.804 39.804 39.804zm0-64.607c13.677 0 24.804 11.127 24.804 24.804s-11.127 24.804-24.804 24.804-24.804-11.127-24.804-24.804 11.127-24.804 24.804-24.804z"/></svg>