<?xml version="1.0" encoding="iso-8859-1"?>
<!-- Generator: Adobe Illustrator 19.0.0, SVG Export Plug-In . SVG Version: 6.00 Build 0)  -->
<svg version="1.1" id="Capa_1" xmlns="http://www.w3.org/2000/svg" xmlns:xlink="http://www.w3.org/1999/xlink" x="0px" y="0px"
	 viewBox="0 0 512 512" style="enable-background:new 0 0 512 512;" xml:space="preserve">
<g>
	<g>
		<g>
			<path d="M85.125,247.772c-3.906,14.783-5.886,30.101-5.886,45.53c0,48.202,19.292,91.976,50.549,124.032
				c0.458,0.639,0.992,1.185,1.62,1.657c31.89,31.869,75.796,51.707,124.251,52.071c0.114,0.005,0.226,0.017,0.341,0.017
				c0.069,0,0.136-0.008,0.204-0.01c0.271,0.001,0.54,0.01,0.812,0.01c48.597,0,92.696-19.608,124.82-51.319
				c0.632-0.465,1.174-1.007,1.639-1.639c31.711-32.124,51.319-76.222,51.319-124.82c0-48.993-19.921-93.42-52.089-125.608
				c-0.213-0.284-0.441-0.56-0.699-0.819c-0.3-0.3-0.624-0.562-0.958-0.802c-32.055-31.257-75.829-50.55-124.032-50.55
				c-0.255,0-0.509,0.012-0.764,0.013c-0.084-0.003-0.167-0.013-0.251-0.013c-0.168,0-0.333,0.014-0.498,0.025
				c-31.087,0.264-61.575,8.633-88.265,24.279c-13.079,7.667-25.102,16.978-35.781,27.634c-0.048,0.046-0.1,0.086-0.147,0.133
				c-0.031,0.031-0.056,0.064-0.087,0.096c-10.714,10.73-20.067,22.818-27.761,35.97c-2.125,3.632-0.903,8.299,2.729,10.424
				c3.632,2.124,8.299,0.902,10.424-2.729c5.812-9.935,12.625-19.102,20.243-27.437l5.226,5.226
				c1.488,1.487,3.438,2.231,5.387,2.231s3.9-0.744,5.387-2.232c2.976-2.975,2.975-7.8,0-10.775l-5.207-5.207
				c27.48-24.922,63.061-40.119,100.73-42.146v7.366c0,4.208,3.411,7.619,7.619,7.619s7.619-3.411,7.619-7.619v-7.474
				c39.121,1.571,74.725,17.029,102.004,41.576l-5.167,5.167c-2.976,2.976-2.976,7.8,0,10.776c1.488,1.487,3.438,2.231,5.387,2.231
				c1.95,0,3.9-0.744,5.387-2.231l5.233-5.233c25.125,27.235,41.079,63.046,42.908,102.49h-7.435c-4.208,0-7.619,3.411-7.619,7.619
				s3.411,7.619,7.619,7.619h7.435c-1.813,39.083-17.487,74.605-42.216,101.746l-5.207-5.207c-2.975-2.974-7.8-2.974-10.775,0
				c-2.976,2.976-2.976,7.8,0,10.776l5.207,5.207c-27.376,24.942-63.279,40.668-102.762,42.254v-7.474
				c0-4.208-3.411-7.619-7.619-7.619s-7.619,3.411-7.619,7.619v7.389c-39.043-2.054-74.473-17.953-101.474-42.862l5.232-5.232
				c2.976-2.976,2.976-7.8,0-10.776c-2.975-2.974-7.8-2.974-10.775,0l-5.167,5.167c-24.334-27.043-39.741-62.266-41.537-100.988
				h7.435c4.208,0,7.619-3.411,7.619-7.619c0-4.208-3.411-7.619-7.619-7.619h-7.422c0.534-11.529,2.257-22.941,5.183-34.018
				c1.077-4.068-1.35-8.237-5.418-9.312C90.367,241.276,86.198,243.703,85.125,247.772z"/>
			<path d="M256,177.04c-4.208,0-7.619,3.411-7.619,7.619v79.42c-12.611,3.733-21.841,15.417-21.841,29.223
				c0,16.805,13.672,30.476,30.476,30.476s30.476-13.672,30.476-30.476c0-14.537-10.234-26.721-23.873-29.747V184.66
				C263.62,180.45,260.208,177.04,256,177.04z M272.255,293.302c0,8.403-6.836,15.238-15.238,15.238
				c-8.402,0-15.238-6.835-15.238-15.238s6.836-15.238,15.238-15.238C265.419,278.064,272.255,284.899,272.255,293.302z"/>
			<path d="M425.659,155.547l7.599-7.503c4.467,4.432,10.312,6.651,16.16,6.651c5.876,0,11.753-2.237,16.226-6.71
				c4.334-4.333,6.72-10.096,6.72-16.225c0-6.129-2.387-11.891-6.721-16.225l-32.199-32.199c-8.947-8.946-23.504-8.945-32.451,0.001
				c-4.334,4.333-6.72,10.096-6.72,16.225c0,6.099,2.367,11.832,6.661,16.159l-7.603,7.506
				c-32.868-26.711-72.363-43.079-114.473-47.436V60.952c12.604,0,22.857-10.254,22.857-22.857V22.857
				C301.714,10.254,291.461,0,278.857,0h-14.941c-4.208,0-7.619,3.411-7.619,7.619s3.411,7.619,7.619,7.619h14.941
				c4.201,0,7.619,3.418,7.619,7.619v15.238c0,4.201-3.418,7.619-7.619,7.619h-45.714c-4.201,0-7.619-3.418-7.619-7.619V22.857
				c0-4.201,3.418-7.619,7.619-7.619c4.208,0,7.619-3.411,7.619-7.619S237.352,0,233.143,0c-12.604,0-22.857,10.254-22.857,22.857
				v15.238c0,12.603,10.253,22.857,22.857,22.857V75.79c-49.702,5.143-95.771,27.007-131.588,62.873
				c-41.25,41.306-63.968,96.224-63.968,154.639c0,58.415,22.718,113.333,63.968,154.64C142.81,489.25,197.659,512,256,512
				c72.997,0,140.87-36.297,181.562-97.093c2.34-3.497,1.403-8.229-2.094-10.569c-3.496-2.34-8.228-1.404-10.57,2.093
				C387.042,462.993,323.901,496.762,256,496.762c-112.031,0-203.175-91.272-203.175-203.46
				c0-108.109,84.64-196.781,191.044-203.087c1.098-0.065,10.636-0.373,12.131-0.373s11.024,0.307,12.116,0.372
				c106.411,6.299,191.058,94.974,191.058,203.088c0,25.107-4.51,49.613-13.405,72.837c-1.505,3.93,0.46,8.335,4.39,9.84
				c3.932,1.505,8.335-0.46,9.84-4.39c9.564-24.971,14.413-51.311,14.413-78.288C474.413,242.525,457.24,194.396,425.659,155.547z
				 M263.62,74.739c-0.324-0.011-7.569-0.136-7.619-0.136c-0.051,0-7.296,0.125-7.619,0.136V60.952h15.238V74.739z M411.768,94.11
				c3.005-3.006,7.896-3.006,10.901,0l32.199,32.199c1.456,1.455,2.257,3.391,2.257,5.449c0,2.06-0.802,3.995-2.257,5.45
				c-3.004,3.005-7.896,3.007-10.901,0l-32.199-32.199c-1.456-1.455-2.257-3.391-2.257-5.449
				C409.51,97.501,410.313,95.566,411.768,94.11z M415.625,144.032c-0.119-0.127-0.245-0.249-0.364-0.376
				c-1.579-1.683-3.178-3.352-4.816-4.993c-1.708-1.71-3.448-3.377-5.202-5.023c-0.134-0.125-0.261-0.257-0.395-0.381l6.856-6.76
				l5.388,5.387l5.387,5.388L415.625,144.032z"/>
			<path d="M93.285,242.047C93.259,242.041,93.258,242.04,93.285,242.047L93.285,242.047z"/>
			<path d="M93.305,242.053c0.106,0.028,0.44,0.116,1.131,0.299C97.461,243.151,93.742,242.168,93.305,242.053z"/>
			<path d="M93.285,242.047c0.006,0.002,0.012,0.003,0.02,0.005C93.298,242.051,93.29,242.049,93.285,242.047z"/>
		</g>
	</g>
</g>
<g>
</g>
<g>
</g>
<g>
</g>
<g>
</g>
<g>
</g>
<g>
</g>
<g>
</g>
<g>
</g>
<g>
</g>
<g>
</g>
<g>
</g>
<g>
</g>
<g>
</g>
<g>
</g>
<g>
</g>
</svg>
