<svg id="Layer_1" enable-background="new 0 0 468 468" height="512" viewBox="0 0 468 468" width="512" xmlns="http://www.w3.org/2000/svg"><g><g><g><path d="m153.831 51.831c-14.278 0-25.895-11.625-25.895-25.916 0-14.29 11.616-25.915 25.895-25.915s25.896 11.625 25.896 25.915c-.001 14.29-11.617 25.916-25.896 25.916zm0-39.831c-7.663 0-13.897 6.242-13.897 13.915s6.234 13.916 13.897 13.916 13.897-6.243 13.897-13.916-6.234-13.915-13.897-13.915z"/></g><g><path d="m273.7 51.831c-14.279 0-25.896-11.625-25.896-25.916 0-14.29 11.616-25.915 25.896-25.915 14.278 0 25.895 11.625 25.895 25.915s-11.617 25.916-25.895 25.916zm0-39.831c-7.663 0-13.897 6.242-13.897 13.915s6.234 13.916 13.897 13.916 13.897-6.243 13.897-13.916-6.234-13.915-13.897-13.915z"/></g></g><g><path d="m306.029 289.089c-2.34-2.502-6.425-2.502-8.764 0-2.693 2.881-65.963 70.997-65.963 108.504 0 15.701 5.165 30.215 13.878 41.937-41.74 6.729-84.165 1.701-123.325-14.73-1.361-.571-2.294-1.841-2.432-3.313l-15.871-168.113c23.758-18.706 56.669-23.243 83.346-7.938 9.242 5.302 17.094 12.678 26.283 18.096 36.085 21.279 76.379 11.983 102.637-17.344l-2.379 25.202c-.311 3.299 2.11 6.226 5.408 6.538.192.018.383.027.571.027 3.059 0 5.672-2.329 5.966-5.437l9.139-96.803c.311-3.299-2.11-6.226-5.408-6.538-3.306-.311-6.225 2.111-6.537 5.41l-5.594 59.253c-25.236 33.092-65.882 43.708-101.833 19.926-10.071-6.662-18.757-15.023-29.657-20.431-26.404-13.101-58.707-9.477-83.235 6.332l-10.403-110.181c22.757 13.895 70.33 21.074 117.49 21.074 65.25 0 131.303-13.74 131.303-40 0-24.682-56.108-36.506-105.533-39.287-4.672-6.802-12.498-11.273-21.35-11.273-8.67 0-16.352 4.29-21.054 10.855-27.202.967-54.772 3.503-80.793 11.946-13.054 4.236-36.63 12.484-33.663 30.287l29.222 309.527c.556 5.886 4.287 10.964 9.736 13.25 29.398 12.335 60.538 18.574 91.924 18.574 15.202 0 30.464-1.484 45.608-4.43 12.456 11.178 28.896 17.991 46.901 17.991 38.788 0 70.344-31.584 70.344-70.407 0-37.507-63.269-105.623-65.962-108.504zm-92.263-217.089c7.663 0 13.896 6.242 13.896 13.915s-6.234 13.916-13.896 13.916-13.897-6.243-13.897-13.916 6.234-13.915 13.897-13.915zm-95.586 21.487c18.398-5.509 42.962-9.15 69.849-10.417-1.654 15.081 10.543 28.76 25.737 28.76 14.992 0 27.122-13.338 25.785-28.251 57.452 3.913 89.1 18.103 89.1 26.98 0 3.526-6.797 11.338-32.272 18.251-23.17 6.287-54.078 9.749-87.033 9.749s-63.862-3.462-87.032-9.749c-25.475-6.913-32.272-14.725-32.272-18.251 0-4.303 8.701-11.25 28.138-17.072zm183.467 362.513c-32.172 0-58.346-26.201-58.346-58.407 0-25.17 38.721-73.6 58.347-95.512 19.626 21.908 58.344 70.326 58.344 95.512 0 32.206-26.174 58.407-58.345 58.407z"/><g><path d="m301.647 436c-19.702-1.26-35.961-18.359-34.596-38.407.083-1.226 1.145-2.152 2.371-2.069 1.113.076 1.979.958 2.067 2.038 1.465 15.207 14.372 27.834 30.158 26.437 3.313-.293 6.236 2.155 6.529 5.468s-2.155 6.237-5.467 6.53c-.355.031-.709.032-1.062.003z"/></g></g><path d="m384.001 53.673h-9.998v-10c0-3.313-2.686-6-5.999-6s-5.999 2.687-5.999 6v10h-9.999c-3.313 0-5.999 2.687-5.999 6s2.686 6 5.999 6h9.999v10c0 3.313 2.686 6 5.999 6s5.999-2.687 5.999-6v-10h9.998c3.313 0 5.999-2.687 5.999-6s-2.686-6-5.999-6z"/><g><circle cx="330.65" cy="148.559" r="6.999"/></g></g></svg>