<svg height="512" viewBox="0 0 512 512" width="512" xmlns="http://www.w3.org/2000/svg"><g id="OUTLINE"><path d="m167.056 108h17.889v16h-17.889z" transform="matrix(.894 -.447 .447 .894 -33.296 90.956)"/><path d="m216 424h-80v-64h-16v80h8v56h16v-56h64v56h16v-56h8v-80h-16z"/><path d="m448 305.57812-19.96973 29.95411a23.92455 23.92455 0 0 0 -4.03027 13.31201v3.15576a24 24 0 0 0 48 0v-3.15576a23.92389 23.92389 0 0 0 -4.03076-13.3125zm8 46.42188a8 8 0 0 1 -16 0v-3.15576a7.97871 7.97871 0 0 1 1.34326-4.4375l6.65674-9.98486 6.65625 9.98437a7.97805 7.97805 0 0 1 1.34375 4.43799z"/><path d="m376 409.57812-19.96973 29.95411a23.92455 23.92455 0 0 0 -4.03027 13.31201v3.15576a24 24 0 0 0 48 0v-3.15576a23.92389 23.92389 0 0 0 -4.03076-13.3125zm8 46.42188a8 8 0 0 1 -16 0v-3.15576a7.97871 7.97871 0 0 1 1.34326-4.4375l6.65674-9.98486 6.65625 9.98437a7.97805 7.97805 0 0 1 1.34375 4.43799z"/><path d="m456 216v-3.15576a23.92389 23.92389 0 0 0 -4.03076-13.3125l-19.96924-29.95362-19.96973 29.95411a23.92455 23.92455 0 0 0 -4.03027 13.31201v3.15576a24 24 0 0 0 48 0zm-32 0v-3.15576a7.97871 7.97871 0 0 1 1.34326-4.4375l6.65674-9.98486 6.65625 9.98437a7.97805 7.97805 0 0 1 1.34375 4.43799v3.15576a8 8 0 0 1 -16 0z"/><path d="m377.33594 164.98065 83.26562-32.02557a23.96009 23.96009 0 0 0 14.15283-29.98975l-14.10546-42.3164a24 24 0 0 0 -30.35743-15.17872l-169.23193 56.41065a24.11337 24.11337 0 0 0 -15.17871 15.17871l-2.31653 6.94959-28.60681-17.16443-13.61072-54.44281a56.06708 56.06708 0 0 0 6.6532-26.58649v-11.83743l-108.999 24.772a88.00084 88.00084 0 0 0 -66.60989 103.94092l1.60059 7.60254a128.45267 128.45267 0 0 0 84.77734 95.062l6.31739 2.106 1.89074 6.30285a166.84259 166.84259 0 0 0 -46.97717 116.5101v125.72559h16v-125.72559a150.92841 150.92841 0 0 1 41.26465-104.126l92.62305 56.603a88.53947 88.53947 0 0 1 42.1123 75.08892v98.15967h16v-98.15967a102.35 102.35 0 0 0 -1.207-15.58179l81.2793-25.39965a56.00088 56.00088 0 0 0 37.90429-65.86133zm-31.00194-74.65936 2.44239 9.77a7.9963 7.9963 0 0 1 -4.95215 9.43066l-33.8418 12.69092a8.00036 8.00036 0 0 1 -10.57031-5.55078l-2.46948-9.87708zm-90.334 59.44482v-12.46826l5.05957-15.17871a8.0385 8.0385 0 0 1 5.05957-5.05957l15.59961-5.19989 2.1709 8.6828a24.00808 24.00808 0 0 0 31.71045 16.65186l33.84228-12.69092a23.99027 23.99027 0 0 0 14.85645-28.293l-2.741-10.96381 73.79321-24.59771a8.00857 8.00857 0 0 1 10.11914 5.05957l14.10547 42.3164a7.98666 7.98666 0 0 1 -4.71728 9.99658l-89.56653 34.44867-16.25818 5.4195a23.99984 23.99984 0 0 0 -33.11133-12.79492l-4.41357 2.20654a23.99576 23.99576 0 0 0 -12.73389 26.49512l.96375 4.49743-20.91053 4.18225a7.98853 7.98853 0 0 1 -7.22607-2.1875l-13.44141-13.4414-19.72045 6.57348-4.6438-16.25317zm-136.57031 78.84034a112.423 112.423 0 0 1 -69.78076-81.60889l-1.60059-7.60256a71.9994 71.9994 0 0 1 54.49854-85.04248l88.57763-20.13135a39.7921 39.7921 0 0 1 -30.12988 30.56983l-28.94727 6.68017a47.76915 47.76915 0 0 0 -36.2749 56.18457l1.66943 8.34426h10.91651a15.95911 15.95911 0 0 1 5.04687 31.09912l-11.29834 3.76563zm74.10547-3.44141 11.5813 63.69751-62.33326-38.09284-20.9492-69.83071a31.95948 31.95948 0 0 0 -10.94921-60.83886 31.82648 31.82648 0 0 1 24.76021-33.03914l28.94727-6.68018a56.07309 56.07309 0 0 0 24.189-12.27051l12.26123 49.04492 36.498 21.89844-23.33692 7.77881 13.33789 46.6831a7.99908 7.99908 0 0 1 -6.12353 10.042l-15.27832 3.05615a16.07542 16.07542 0 0 0 -12.60446 18.55127zm15.74218-2.86182 15.27832-3.05615a23.99942 23.99942 0 0 0 18.37012-30.127l-.08594-.30078 10.99952-3.66651 6.44921 6.44922a23.96729 23.96729 0 0 0 21.67676 6.56348l21.1261-4.22528 13.73377 64.091a8.00939 8.00939 0 0 1 -6.14649 9.499l-89.68408 19.218zm73.853 144.33716a104.61 104.61 0 0 0 -44.8999-57.54126l-11.72925-7.168 81.51807-17.468 24.2937 66.80762zm80.16943-25.053-15.69873 4.90576-24.49951-67.374a23.96 23.96 0 0 0 9.36817-24.44043l-18.0503-84.23486a7.99851 7.99851 0 0 1 4.24414-8.83155l4.41358-2.20654a8.0006 8.0006 0 0 1 11.16748 4.62549 14.86789 14.86789 0 0 0 18.78369 9.39209l9.12695-3.04248 28.21876 124.1626a40.20566 40.20566 0 0 1 -27.0742 47.04394z"/></g></svg>