<svg id="Layer_1" enable-background="new 0 0 512 512" height="512" viewBox="0 0 512 512" width="512" xmlns="http://www.w3.org/2000/svg"><path d="m256 8c-136.967 0-248 111.033-248 248s111.033 248 248 248 248-111.033 248-248-111.033-248-248-248zm-232 248c.118-128.13 104.083-231.904 232.213-231.787 58.625.054 115.056 22.3 157.947 62.267l-166.16 166.24v-36.72c-.038-11.713-8.525-21.687-20.08-23.6-12.094-24.846-17.446-52.434-15.52-80h3.6c4.418 0 8-3.582 8-8v-32.4c0-4.418-3.582-8-8-8h-48c-4.418 0-8 3.582-8 8v32c0 4.418 3.582 8 8 8h3.6c1.997 27.699-3.357 55.434-15.52 80.4-11.555 1.913-20.042 11.887-20.08 23.6v148.72l-49.52 49.44c-40.184-42.855-62.526-99.412-62.48-158.16zm332.08 11.52c-2.24 3.28-3.2 4.48-4.16 4.48s-1.92-1.28-4-4.4c-3.923-9.566-14.858-14.14-24.423-10.217-4.636 1.901-8.316 5.581-10.217 10.217-4.16 6.24-3.84 6.24-8 0-2.217-3.944-5.413-7.251-9.28-9.6v-18h64v22.4c-1.431 1.608-2.741 3.319-3.92 5.12zm-28.08 148.48c10.175-.005 19.248 6.407 22.64 16h-45.28c3.392-9.593 12.465-16.005 22.64-16zm-176-128v-72c0-4.418 3.582-8 8-8h64c4.418 0 8 3.582 8 8v72zm80 64v80h-80v-80zm-56-256v-16h32v16zm80 392c-58.748.046-115.305-22.296-158.16-62.48l38.16-38.24v52.72c0 4.418 3.582 8 8 8h96c4.418 0 8-3.582 8-8v-164.72l32-32v60.72c.024 23.404 16.923 43.379 40 47.28v49.52c-18.627 3.802-32.004 20.189-32 39.2 0 4.418 3.582 8 8 8h64c4.418 0 8-3.582 8-8 .004-19.011-13.373-35.398-32-39.2v-49.52c23.077-3.901 39.976-23.876 40-47.28v-72c0-4.418-3.582-8-8-8h-68.72l126.24-126.16c87.349 93.741 82.168 240.544-11.573 327.893-42.891 39.967-99.322 62.213-157.947 62.267z"/></svg>