<svg xmlns="http://www.w3.org/2000/svg" width="153.599" height="120.018" viewBox="0 0 153.599 120.018">
  <g id="cheeseburger_1_" data-name="cheeseburger (1)" transform="translate(0 -55.968)">
    <path id="Path_9718" data-name="Path 9718" d="M151.911,365.488H24.987a8.5,8.5,0,0,0-8.215,9.554,39.217,39.217,0,0,0,1.731,7.44,11.893,11.893,0,0,0,11.278,8.07H147.117a11.893,11.893,0,0,0,11.278-8.069,39.215,39.215,0,0,0,1.732-7.44A8.5,8.5,0,0,0,151.911,365.488Z" transform="translate(-11.691 -216.664)" fill="#ffc365"/>
    <path id="Path_9719" data-name="Path 9719" d="M40.538,382.481a39.21,39.21,0,0,1-1.731-7.44,8.5,8.5,0,0,1,8.215-9.554H24.987a8.5,8.5,0,0,0-8.215,9.554,39.218,39.218,0,0,0,1.731,7.44,11.893,11.893,0,0,0,11.278,8.07H51.816A11.892,11.892,0,0,1,40.538,382.481Z" transform="translate(-11.691 -216.663)" fill="#ffb640"/>
    <path id="Path_9720" data-name="Path 9720" d="M369.256,259.8h-39.95a3.7,3.7,0,0,1,3.636,3.738v4.654a3.7,3.7,0,0,1-3.636,3.738h39.95a3.7,3.7,0,0,0,3.635-3.738v-4.654A3.7,3.7,0,0,0,369.256,259.8Z" transform="translate(-230.514 -142.683)" fill="#ff636e"/>
    <path id="Path_9721" data-name="Path 9721" d="M346.714,268.193v-4.654a3.7,3.7,0,0,1,3.636-3.738H329.306a3.7,3.7,0,0,1,3.636,3.738v4.654a3.7,3.7,0,0,1-3.636,3.738H350.35A3.7,3.7,0,0,1,346.714,268.193Z" transform="translate(-230.514 -142.682)" fill="#ff4654"/>
    <path id="Path_9722" data-name="Path 9722" d="M212.405,259.8H164.655a3.7,3.7,0,0,0-3.636,3.738v4.654a3.7,3.7,0,0,0,3.636,3.738h47.751a3.7,3.7,0,0,0,3.636-3.738v-4.654A3.7,3.7,0,0,0,212.405,259.8Z" transform="translate(-112.713 -142.683)" fill="#ff636e"/>
    <path id="Path_9723" data-name="Path 9723" d="M183.054,268.193v-4.654a3.7,3.7,0,0,1,3.636-3.738H164.655a3.7,3.7,0,0,0-3.636,3.738v4.654a3.7,3.7,0,0,0,3.636,3.738h22.035A3.7,3.7,0,0,1,183.054,268.193Z" transform="translate(-112.713 -142.682)" fill="#ff4654"/>
    <path id="Path_9724" data-name="Path 9724" d="M70.8,268.193v-4.654a3.7,3.7,0,0,1,3.636-3.738H34.49a3.7,3.7,0,0,0-3.636,3.738v4.654a3.7,3.7,0,0,0,3.636,3.738h39.95A3.7,3.7,0,0,1,70.8,268.193Z" transform="translate(-21.598 -142.682)" fill="#ff636e"/>
    <path id="Path_9725" data-name="Path 9725" d="M52.89,268.193v-4.654a3.7,3.7,0,0,1,3.636-3.738H34.491a3.7,3.7,0,0,0-3.636,3.738v4.654a3.7,3.7,0,0,0,3.636,3.738H56.525A3.7,3.7,0,0,1,52.89,268.193Z" transform="translate(-21.598 -142.682)" fill="#ff4654"/>
    <path id="Path_9726" data-name="Path 9726" d="M337.174,299.127H315.741c-15.422,1.477-28.187,11.886-36.089,20.208h57.52a7.108,7.108,0,0,0,7.087-7.087v-6.034A7.108,7.108,0,0,0,337.174,299.127Z" transform="translate(-195.757 -170.211)" fill="#a15427"/>
    <path id="Path_9727" data-name="Path 9727" d="M43.34,299.127H23.789a7.108,7.108,0,0,0-7.087,7.087v6.033a7.108,7.108,0,0,0,7.087,7.087H79.635c-15.6-15.61-36.295-20.208-36.295-20.208Z" transform="translate(-11.691 -170.211)" fill="#a15427"/>
    <path id="Path_9728" data-name="Path 9728" d="M38.738,312.248v-6.033a7.114,7.114,0,0,1,5.42-6.886c-.528-.137-.816-.2-.816-.2H23.79a7.108,7.108,0,0,0-7.087,7.087v6.033a7.108,7.108,0,0,0,7.087,7.087H45.825A7.108,7.108,0,0,1,38.738,312.248Z" transform="translate(-11.692 -170.211)" fill="#924d24"/>
    <path id="Path_9729" data-name="Path 9729" d="M103.5,299.127s23.821,5.29,39.608,23.789a6.961,6.961,0,0,0,10.58.03c7.339-8.563,21.584-22.118,39.348-23.819Z" transform="translate(-72.447 -170.211)" fill="#ffe02f"/>
    <path id="Path_9730" data-name="Path 9730" d="M103.5,299.127s23.821,5.29,39.607,23.789a6.961,6.961,0,0,0,10.581.03c7.339-8.563,21.584-22.118,39.348-23.819Z" transform="translate(-72.447 -170.211)" fill="#ffe02f"/>
    <path id="Path_9731" data-name="Path 9731" d="M156.314,318.3c-8.149-9.55-18.439-15.579-26.488-19.178H103.5s23.821,5.29,39.607,23.789a6.961,6.961,0,0,0,10.581.03c1.021-1.192,2.177-2.48,3.457-3.82A7.026,7.026,0,0,1,156.314,318.3Z" transform="translate(-72.448 -170.211)" fill="#fbc700"/>
    <path id="Path_9732" data-name="Path 9732" d="M156.384,113.079c-3.619-27.464-35.5-49.1-74.477-49.1S11.049,85.606,7.43,113.079a8.827,8.827,0,0,0,8.533,9.943H147.851A8.827,8.827,0,0,0,156.384,113.079Z" transform="translate(-5.149 -5.604)" fill="#ffc365"/>
    <path id="Path_9733" data-name="Path 9733" d="M29.465,113.079c3.271-24.833,29.646-44.891,63.46-48.518a103.347,103.347,0,0,0-11.018-.587c-38.963,0-70.859,21.632-74.477,49.1a8.827,8.827,0,0,0,8.533,9.943H38A8.827,8.827,0,0,1,29.465,113.079Z" transform="translate(-5.149 -5.604)" fill="#ffb640"/>
    <path id="Path_9734" data-name="Path 9734" d="M102.957,94.174l3.129,4.5a1.817,1.817,0,0,0,2.984,0l3.129-4.5a5.612,5.612,0,0,0-.588-7.144,81.4,81.4,0,0,0-9.621,4.667A5.606,5.606,0,0,0,102.957,94.174Z" transform="translate(-71.392 -21.743)" fill="#fcd79b"/>
    <path id="Path_9735" data-name="Path 9735" d="M195.532,81.366a5.629,5.629,0,0,0-4.621,8.843l3.129,4.5a1.817,1.817,0,0,0,2.984,0l3.129-4.5A5.629,5.629,0,0,0,195.532,81.366Z" transform="translate(-132.925 -17.779)" fill="#fee6c1"/>
    <path id="Path_9736" data-name="Path 9736" d="M283.6,81.366a5.629,5.629,0,0,0-4.621,8.843l3.129,4.5a1.817,1.817,0,0,0,2.983,0l3.129-4.5A5.629,5.629,0,0,0,283.6,81.366Z" transform="translate(-194.572 -17.779)" fill="#fee6c1"/>
    <path id="Path_9737" data-name="Path 9737" d="M151.5,159.493a5.629,5.629,0,0,1-4.621-8.843l3.129-4.5a1.817,1.817,0,0,1,2.984,0l3.129,4.5A5.629,5.629,0,0,1,151.5,159.493Z" transform="translate(-102.101 -62.584)" fill="#fee6c1"/>
    <path id="Path_9738" data-name="Path 9738" d="M239.566,159.493a5.629,5.629,0,0,1-4.621-8.843l3.129-4.5a1.817,1.817,0,0,1,2.984,0l3.129,4.5A5.629,5.629,0,0,1,239.566,159.493Z" transform="translate(-163.749 -62.584)" fill="#fee6c1"/>
    <path id="Path_9739" data-name="Path 9739" d="M327.635,159.493a5.629,5.629,0,0,1-4.621-8.843l3.129-4.5a1.817,1.817,0,0,1,2.983,0l3.129,4.5A5.629,5.629,0,0,1,327.635,159.493Z" transform="translate(-225.397 -62.584)" fill="#fee6c1"/>
    <path id="Path_9740" data-name="Path 9740" d="M370.178,97.456a1.817,1.817,0,0,0,2.983,0l3.129-4.5a5.543,5.543,0,0,0,1.007-3.5,82.919,82.919,0,0,0-9.082-4.169,5.628,5.628,0,0,0-1.166,7.665Z" transform="translate(-256.222 -20.527)" fill="#fee6c1"/>
    <g id="Group_17961" data-name="Group 17961" transform="translate(43.758 63.587)">
      <path id="Path_9741" data-name="Path 9741" d="M197.518,90.209a5.633,5.633,0,0,1,1.317-7.783,5.553,5.553,0,0,0-3.3-1.06,5.629,5.629,0,0,0-4.621,8.843l3.129,4.5a1.817,1.817,0,0,0,2.984,0l1.811-2.6Z" transform="translate(-176.683 -81.366)" fill="#fcd79b"/>
      <path id="Path_9742" data-name="Path 9742" d="M285.586,90.209a5.633,5.633,0,0,1,1.317-7.783,5.553,5.553,0,0,0-3.3-1.06,5.629,5.629,0,0,0-4.621,8.843l3.129,4.5a1.817,1.817,0,0,0,2.983,0l1.812-2.6Z" transform="translate(-238.331 -81.366)" fill="#fcd79b"/>
      <path id="Path_9743" data-name="Path 9743" d="M153.484,150.65l1.317-1.894-1.811-2.6a1.817,1.817,0,0,0-2.983,0l-3.129,4.5a5.629,5.629,0,0,0,4.621,8.843,5.554,5.554,0,0,0,3.3-1.06A5.633,5.633,0,0,1,153.484,150.65Z" transform="translate(-145.86 -126.171)" fill="#fcd79b"/>
      <path id="Path_9744" data-name="Path 9744" d="M241.551,150.65l1.317-1.894-1.812-2.6a1.817,1.817,0,0,0-2.984,0l-3.129,4.5a5.629,5.629,0,0,0,4.621,8.843,5.553,5.553,0,0,0,3.3-1.06A5.633,5.633,0,0,1,241.551,150.65Z" transform="translate(-207.506 -126.171)" fill="#fcd79b"/>
      <path id="Path_9745" data-name="Path 9745" d="M329.621,150.65l1.317-1.894-1.812-2.6a1.817,1.817,0,0,0-2.983,0l-3.129,4.5a5.629,5.629,0,0,0,4.621,8.843,5.553,5.553,0,0,0,3.3-1.06A5.632,5.632,0,0,1,329.621,150.65Z" transform="translate(-269.156 -126.171)" fill="#fcd79b"/>
      <path id="Path_9746" data-name="Path 9746" d="M373.656,92.959a5.549,5.549,0,0,1-.492-5.554q-2.414-1.12-4.949-2.111a5.628,5.628,0,0,0-1.166,7.665l3.129,4.5a1.817,1.817,0,0,0,2.983,0l1.812-2.6Z" transform="translate(-299.98 -84.116)" fill="#fcd79b"/>
    </g>
    <path id="Path_9747" data-name="Path 9747" d="M153.507,107.029C149.691,78.063,116.472,55.968,76.8,55.968c-39.642,0-72.891,22.081-76.707,51.061a10.8,10.8,0,0,0,7.3,11.619,5.846,5.846,0,0,0-.341,1.954v4.526a5.841,5.841,0,0,0,.588,2.547A9.343,9.343,0,0,0,2.8,135.851v6.034a9.325,9.325,0,0,0,3.647,7.4A10.585,10.585,0,0,0,5.4,150.32a10.39,10.39,0,0,0-2.5,8.2,41.577,41.577,0,0,0,1.83,7.867,14.127,14.127,0,0,0,13.409,9.6H71.549a2.25,2.25,0,0,0,0-4.5H18.131a9.629,9.629,0,0,1-9.145-6.538,37.073,37.073,0,0,1-1.632-7.013,5.812,5.812,0,0,1,1.424-4.646,6.069,6.069,0,0,1,4.56-2.066h53.1c.935.964,1.817,1.938,2.546,2.792A9.223,9.223,0,0,0,76,157.255h.01c4.926,0,6.873-3.207,9.489-6.02l.012-.013h54.749a6.068,6.068,0,0,1,4.56,2.066,5.812,5.812,0,0,1,1.424,4.646,37.092,37.092,0,0,1-1.633,7.013,9.63,9.63,0,0,1-9.146,6.538H82.049a2.25,2.25,0,0,0,0,4.5h53.418a14.126,14.126,0,0,0,13.409-9.6,41.61,41.61,0,0,0,1.831-7.867,10.39,10.39,0,0,0-2.5-8.2,10.556,10.556,0,0,0-1.057-1.042,9.357,9.357,0,0,0,3.169-4.446,2.25,2.25,0,1,0-4.267-1.428,4.841,4.841,0,0,1-4.589,3.318H90.009c8.554-7.967,19.151-14.569,30.738-15.708H141.46a4.842,4.842,0,0,1,4.589,3.318,2.25,2.25,0,1,0,4.267-1.428,9.351,9.351,0,0,0-5.948-5.926,5.856,5.856,0,0,0,.3-1.85V120.6a5.856,5.856,0,0,0-.207-1.523,10.815,10.815,0,0,0,9.044-12.049ZM115.49,74.981l-2.773-3.987a3.3,3.3,0,0,1-.091-3.72c2.144.878,4.3,1.872,6.1,2.8a3.445,3.445,0,0,1-.458.924ZM65.644,67.5a3.326,3.326,0,0,1-.221,3.494l-2.774,3.987-2.774-3.987a3.326,3.326,0,0,1-.221-3.494,3.376,3.376,0,0,1,5.989,0ZM39,70.994l-2.774,3.987c-.073-.1-2.793-4.011-2.861-4.118,2.044-1.1,4.183-2.125,6.041-2.928A3.278,3.278,0,0,1,39,70.994Zm59.832,48.222a1.4,1.4,0,0,1,1.386,1.386v4.526a1.4,1.4,0,0,1-1.386,1.386H52.884a1.4,1.4,0,0,1-1.386-1.386V120.6a1.4,1.4,0,0,1,1.386-1.386Zm-19.263,31.9a4.684,4.684,0,0,1-3.56,1.636h-.005a4.784,4.784,0,0,1-3.6-1.662c-8.668-10.157-19.556-16.424-27.912-20.079H104.71c-9.635,4.583-18.287,12.108-25.139,20.105ZM47,120.6v4.526a6.234,6.234,0,0,0,.165,1.386H12.934a1.4,1.4,0,0,1-1.386-1.386V120.6a1.4,1.4,0,0,1,1.386-1.386H47.163A6.3,6.3,0,0,0,47,120.6ZM12.14,146.722A4.843,4.843,0,0,1,7.3,141.885v-6.034a4.843,4.843,0,0,1,4.837-4.838H30.827c.205.049.45.114.643.165a83.2,83.2,0,0,1,30.117,15.543Zm92.415-20.208a6.3,6.3,0,0,0,.165-1.386V120.6a6.234,6.234,0,0,0-.165-1.386h34.229a1.4,1.4,0,0,1,1.386,1.386v4.526a1.4,1.4,0,0,1-1.386,1.386Zm38.188-11.8H10.856a6.322,6.322,0,0,1-6.3-7.1c1.932-14.67,12.149-26.588,24.917-34.5.092.152.187.3.289.449h0l3.129,4.5a4.069,4.069,0,0,0,6.677,0l3.129-4.5a7.794,7.794,0,0,0,.9-7.31,91.247,91.247,0,0,1,15.46-4.2,7.883,7.883,0,0,0-2.874,11.514l3.129,4.5a4.069,4.069,0,0,0,6.677,0l3.129-4.5a7.878,7.878,0,0,0-5.184-12.27,100.778,100.778,0,0,1,24.937-.1A7.878,7.878,0,0,0,82.6,73.563l3.129,4.5a4.069,4.069,0,0,0,6.677,0l3.129-4.5a7.879,7.879,0,0,0-4.175-12.036,92.781,92.781,0,0,1,17.021,4.142,7.885,7.885,0,0,0,.639,7.893l3.129,4.5h0a4.069,4.069,0,0,0,6.677,0l3.129-4.5a8.068,8.068,0,0,0,.737-1.314c13.334,7.846,24.334,20.063,26.35,35.368a6.322,6.322,0,0,1-6.3,7.1ZM89.069,65.686a3.379,3.379,0,0,1,2.774,5.308l-2.774,3.987L86.3,70.994A3.376,3.376,0,0,1,89.069,65.686Z" transform="translate(0 0)"/>
    <path id="Path_9748" data-name="Path 9748" d="M149.74,139.115a4.07,4.07,0,0,0-6.677,0l-3.129,4.5a7.879,7.879,0,1,0,12.935,0Zm-.344,10.562a3.376,3.376,0,0,1-5.989,0,3.326,3.326,0,0,1,.221-3.494L146.4,142.2l2.774,3.987A3.325,3.325,0,0,1,149.4,149.676Z" transform="translate(-96.962 -56.983)"/>
    <path id="Path_9749" data-name="Path 9749" d="M237.807,139.115a4.069,4.069,0,0,0-6.677,0l-3.129,4.5a7.879,7.879,0,1,0,12.935,0Zm-.344,10.562a3.376,3.376,0,0,1-5.989,0,3.326,3.326,0,0,1,.221-3.494l2.774-3.987,2.774,3.987A3.326,3.326,0,0,1,237.464,149.676Z" transform="translate(-158.61 -56.983)"/>
    <path id="Path_9750" data-name="Path 9750" d="M325.877,139.115a4.07,4.07,0,0,0-6.678,0l-3.128,4.5a7.879,7.879,0,1,0,12.935,0Zm-.344,10.562a3.376,3.376,0,0,1-5.989,0,3.325,3.325,0,0,1,.221-3.494l2.773-3.987,2.774,3.987A3.326,3.326,0,0,1,325.533,149.676Z" transform="translate(-220.259 -56.983)"/>
  </g>
</svg>
